<?xml version="1.0" encoding="utf-8"?>
<svg id="Camada_1" data-name="Camada 1" xmlns="http://www.w3.org/2000/svg" viewBox="176.79689 119.05601 505.13403 369.0736" width="505.13403" height="369.0736">
  <defs>
    <style>.cls-1,.cls-12,.cls-13,.cls-14,.cls-16,.cls-21,.cls-25,.cls-7{fill:#fff;}.cls-2,.cls-20{opacity:0.15;}.cls-10,.cls-11,.cls-12,.cls-13,.cls-14,.cls-16,.cls-17,.cls-2,.cls-21,.cls-23,.cls-25,.cls-26,.cls-27,.cls-7,.cls-9{isolation:isolate;}.cls-17,.cls-3{fill:#4d61fc;}.cls-4{fill:#ebf0ff;}.cls-18,.cls-5{fill:#487cff;}.cls-6{fill:#036;}.cls-11,.cls-17,.cls-7{opacity:0.2;}.cls-8{fill:#3f4249;}.cls-9{opacity:0.1;}.cls-10,.cls-28{opacity:0.3;}.cls-12{opacity:0.73;}.cls-13{opacity:0.6;}.cls-14,.cls-23{opacity:0.4;}.cls-15{fill:#61656d;}.cls-16,.cls-27{opacity:0.5;}.cls-18{opacity:0.4;}.cls-19{fill:#f6f9fe;}.cls-21{opacity:0.85;}.cls-22{fill:#21252b;}.cls-24{fill:#956363;}.cls-25{opacity:0.72;}.cls-26{opacity:0.8;}.cls-29{fill:#fc9d9d;}</style>
  </defs>
  <path class="cls-1" d="M235.29,461.2,206,353.67a16.23,16.23,0,0,1,.28-9.46l49.51-146.49c2.34-6.91,9.07-11.81,17-12.39l252-18.08a20.36,20.36,0,0,1,15.74,5.63l90.86,90a16.71,16.71,0,0,1,5,13.8L615.12,461.2Z" />
  <path class="cls-2" d="M551.57,306.84l-1.28.25-5.2-13.25-.44-1.11c.41-1.89,1-4.37,1.28-5.86a.37.37,0,0,1,.12-.2.39.39,0,0,1,.21-.08.34.34,0,0,1,.22.07.3.3,0,0,1,.13.18l5.83,18.55a1.12,1.12,0,0,1,0,.48,1.15,1.15,0,0,1-.15.44,1.23,1.23,0,0,1-.33.35A1.16,1.16,0,0,1,551.57,306.84Z" />
  <path class="cls-3" d="M571.68,163.1H300a3.63,3.63,0,0,0-3.63,3.63V360.56a3.64,3.64,0,0,0,3.63,3.63H571.68a3.63,3.63,0,0,0,3.63-3.63V166.73A3.62,3.62,0,0,0,571.68,163.1Z" />
  <path class="cls-4" d="M571.68,163.1H300a3.63,3.63,0,0,0-3.63,3.63V360.56a3.64,3.64,0,0,0,3.63,3.63H571.68a3.63,3.63,0,0,0,3.63-3.63V166.73A3.62,3.62,0,0,0,571.68,163.1Z" />
  <path class="cls-4" d="M569.94,163.1H298.25a3.63,3.63,0,0,0-3.63,3.63V360.56a3.64,3.64,0,0,0,3.63,3.63H569.94a3.64,3.64,0,0,0,3.63-3.63V166.73A3.63,3.63,0,0,0,569.94,163.1Z" />
  <path class="cls-3" d="M557.19,185.5H332.44a2.9,2.9,0,0,0-2.89,2.89V250.6a2.9,2.9,0,0,0,2.89,2.89H557.19a2.89,2.89,0,0,0,2.89-2.89V188.39A2.89,2.89,0,0,0,557.19,185.5Z" />
  <path class="cls-2" d="M557.19,185.5H332.44a2.9,2.9,0,0,0-2.89,2.89V250.6a2.9,2.9,0,0,0,2.89,2.89H557.19a2.89,2.89,0,0,0,2.89-2.89V188.39A2.89,2.89,0,0,0,557.19,185.5Z" />
  <path class="cls-5" d="M555.8,185.5H331.05a2.9,2.9,0,0,0-2.89,2.89V250.6a2.9,2.9,0,0,0,2.89,2.89H555.8a2.9,2.9,0,0,0,2.89-2.89V188.39A2.9,2.9,0,0,0,555.8,185.5Z" />
  <path class="cls-6" d="M352.84,195.24H310.27v58.24h42.57Z" />
  <path class="cls-6" d="M316.6,195.24h-6.33v58.24h6.33Z" />
  <path class="cls-6" d="M353.72,194.19H309.38v5.08h44.34Z" />
  <path class="cls-5" d="M350.52,202.86H319.63v46h30.89Z" />
  <path class="cls-7" d="M319.63,232.7l30.9-22.88V208l-30.9,22.88Z" />
  <path class="cls-7" d="M319.63,242.45l30.9-22.88v-1.81l-30.9,22.88Z" />
  <path class="cls-7" d="M319.63,239.25l30.9-22.88v-4.46l-30.9,22.88Z" />
  <path class="cls-6" d="M350.52,206.33H319.63v1.81h30.89Z" />
  <path class="cls-6" d="M350.52,213.82H319.63v1.81h30.89Z" />
  <path class="cls-6" d="M350.52,221.32H319.63v1.81h30.89Z" />
  <path class="cls-6" d="M350.52,228.82H319.63v1.81h30.89Z" />
  <path class="cls-6" d="M350.52,236.32H319.63v1.81h30.89Z" />
  <path class="cls-6" d="M350.52,243.81H319.63v1.81h30.89Z" />
  <path class="cls-6" d="M360.93,221.59H340.77v31.89h20.16Z" />
  <path class="cls-6" d="M388.46,221.59H356.89v31.89h31.57Z" />
  <path class="cls-6" d="M389.53,219.86H340.05v3.45h49.48Z" />
  <path class="cls-5" d="M355.72,226.8H342.11v24.89h13.61Z" />
  <path class="cls-6" d="M349.39,226.8h-1.23v24.89h1.23Z" />
  <path class="cls-6" d="M355.72,230.63H342.11v.59h13.61Z" />
  <path class="cls-6" d="M355.72,235.54H342.11v.59h13.61Z" />
  <path class="cls-6" d="M355.72,239.45H342.11V240h13.61Z" />
  <path class="cls-6" d="M355.72,243.69H342.11v.58h13.61Z" />
  <path class="cls-6" d="M355.72,247.93H342.11v.58h13.61Z" />
  <path class="cls-5" d="M387.12,226.8H358.66v24.89h28.46Z" />
  <path class="cls-6" d="M373.88,226.8h-2.57v24.89h2.57Z" />
  <path class="cls-6" d="M387.12,230.63H358.66v.59h28.46Z" />
  <path class="cls-6" d="M387.12,235.54H358.66v.59h28.46Z" />
  <path class="cls-6" d="M387.12,239.45H358.66V240h28.46Z" />
  <path class="cls-6" d="M387.12,243.69H358.66v.58h28.46Z" />
  <path class="cls-6" d="M387.12,247.93H358.66v.58h28.46Z" />
  <path class="cls-8" d="M314.18,244.11s-1.08,1-1.72.92l-.29.37A2.24,2.24,0,0,0,314.18,244.11Z" />
  <path class="cls-9" d="M314.18,244.11a2.79,2.79,0,0,1-1.81,1.14l.19-.23S313,245.18,314.18,244.11Z" />
  <path class="cls-8" d="M309.53,243.86s-.1,1.49-.64,1.84l0,.46A2.22,2.22,0,0,0,309.53,243.86Z" />
  <path class="cls-10" d="M309.53,243.86a2.78,2.78,0,0,1-.56,2.06l0-.3S309.39,245.45,309.53,243.86Z" />
  <path class="cls-8" d="M313,243.41s-1,2.52-2.17,2.82l-.22.83A4.09,4.09,0,0,0,313,243.41Z" />
  <path class="cls-10" d="M313,243.41s-.48,2.41-2.16,3.24l.13-.52S311.85,246.08,313,243.41Z" />
  <path class="cls-8" d="M308.13,244.11s1,2.52,2.17,2.82l.22.83A4.09,4.09,0,0,1,308.13,244.11Z" />
  <path class="cls-10" d="M308.13,244.11s.48,2.42,2.16,3.25l-.13-.53S309.31,246.78,308.13,244.11Z" />
  <path class="cls-8" d="M310.42,242.32l-.29,11.18,1.14,0-.48-11.15Z" />
  <path class="cls-10" d="M310.58,242.32l.09,11.14h.6l-.48-11.15Z" />
  <path class="cls-4" d="M313.72,238.58a2.4,2.4,0,0,0-.46,0,3,3,0,0,0-3.84-1.21,2.91,2.91,0,0,0-1,.77,2.72,2.72,0,0,0-.49-.05,2.06,2.06,0,0,0-2.2,1.86,1.94,1.94,0,0,0,1.65,1.8v0h6.37a1.66,1.66,0,1,0,0-3.27Z" />
  <path class="cls-11" d="M314,238.61c-.32,1.49-2.36,2.64-4.84,2.64a6.67,6.67,0,0,1-3.43-.88,2.06,2.06,0,0,0,1.6,1.43v0h6.37a1.81,1.81,0,0,0,1.94-1.64A1.72,1.72,0,0,0,314,238.61Z" />
  <path class="cls-4" d="M315.44,241.8a1.87,1.87,0,0,0-.34,0,2,2,0,0,0-.78-.79,2.08,2.08,0,0,0-1.09-.27,2,2,0,0,0-.91.19,2.08,2.08,0,0,0-.75.56,1.39,1.39,0,0,0-.35,0,1.48,1.48,0,0,0-1.6,1.35,1.41,1.41,0,0,0,1.2,1.3v.05h4.62a1.21,1.21,0,1,0,0-2.38Z" />
  <path class="cls-11" d="M315.66,241.85c-.23,1.08-1.71,1.92-3.52,1.92a4.88,4.88,0,0,1-2.48-.64,1.46,1.46,0,0,0,.44.68,1.39,1.39,0,0,0,.73.35v.05h4.61a1.32,1.32,0,0,0,1.41-1.19,1.26,1.26,0,0,0-.38-.81A1.31,1.31,0,0,0,315.66,241.85Z" />
  <path class="cls-4" d="M310.3,241.89a1.65,1.65,0,0,0-.32,0,2.09,2.09,0,0,0-.79-.8,2,2,0,0,0-1.08-.27,2.23,2.23,0,0,0-.92.19,2.14,2.14,0,0,0-.74.56,1.47,1.47,0,0,0-.36,0,1.49,1.49,0,0,0-1.59,1.35,1.37,1.37,0,0,0,.37.86,1.33,1.33,0,0,0,.82.44h0l4.62.05a1.31,1.31,0,0,0,1.41-1.19A1.33,1.33,0,0,0,310.3,241.89Z" />
  <path class="cls-11" d="M310.51,241.91c-.23,1.08-1.71,1.91-3.51,1.91a4.83,4.83,0,0,1-2.49-.63,1.52,1.52,0,0,0,.43.68,1.54,1.54,0,0,0,.74.35l4.61.05a1.32,1.32,0,0,0,1.41-1.19,1.26,1.26,0,0,0-.38-.81A1.29,1.29,0,0,0,310.51,241.91Z" />
  <path class="cls-8" d="M307,243.87s.81,1.25,1.45,1.3l.2.42A2.22,2.22,0,0,1,307,243.87Z" />
  <path class="cls-10" d="M307,243.87s.51,1.25,1.49,1.52l-.12-.26S307.88,245.19,307,243.87Z" />
  <path class="cls-8" d="M328.87,244.11s-1.08,1-1.71.92l-.29.37A2.23,2.23,0,0,0,328.87,244.11Z" />
  <path class="cls-9" d="M328.87,244.11a2.79,2.79,0,0,1-1.8,1.14l.18-.23S327.69,245.18,328.87,244.11Z" />
  <path class="cls-8" d="M324.23,243.86s-.1,1.49-.64,1.84l0,.46A2.24,2.24,0,0,0,324.23,243.86Z" />
  <path class="cls-10" d="M324.23,243.86a2.78,2.78,0,0,1-.56,2.06l0-.3S324.08,245.45,324.23,243.86Z" />
  <path class="cls-8" d="M327.71,243.41s-1,2.52-2.17,2.82l-.22.83A4.08,4.08,0,0,0,327.71,243.41Z" />
  <path class="cls-10" d="M327.71,243.41s-.48,2.41-2.16,3.24l.13-.52S326.55,246.08,327.71,243.41Z" />
  <path class="cls-8" d="M322.83,244.11s1,2.52,2.17,2.82l.21.83A4.09,4.09,0,0,1,322.83,244.11Z" />
  <path class="cls-10" d="M322.83,244.11s.48,2.42,2.16,3.25l-.13-.53S324,246.78,322.83,244.11Z" />
  <path class="cls-8" d="M325.12,242.32l-.29,11.18,1.13,0-.48-11.15Z" />
  <path class="cls-10" d="M325.28,242.32l.09,11.14H326l-.48-11.15Z" />
  <path class="cls-4" d="M328.42,238.58a2.5,2.5,0,0,0-.47,0,2.83,2.83,0,0,0-2.57-1.47,2.92,2.92,0,0,0-1.27.26,3,3,0,0,0-1,.77,2.61,2.61,0,0,0-.48-.05,2.05,2.05,0,0,0-2.2,1.86,1.94,1.94,0,0,0,1.65,1.8v0h6.37a1.66,1.66,0,1,0,0-3.27Z" />
  <path class="cls-11" d="M328.71,238.61c-.32,1.49-2.36,2.64-4.84,2.64a6.67,6.67,0,0,1-3.43-.88,2.09,2.09,0,0,0,.6.94,2,2,0,0,0,1,.49v0h6.37a1.81,1.81,0,0,0,1.94-1.64A1.72,1.72,0,0,0,328.71,238.61Z" />
  <path class="cls-4" d="M330.13,241.8a1.84,1.84,0,0,0-.33,0A2.07,2.07,0,0,0,329,241a2,2,0,0,0-1.08-.27,2.08,2.08,0,0,0-.92.19,2.17,2.17,0,0,0-.75.56,1.34,1.34,0,0,0-.35,0,1.48,1.48,0,0,0-1.59,1.35,1.4,1.4,0,0,0,.37.86,1.38,1.38,0,0,0,.83.44v.05h4.61a1.21,1.21,0,1,0,0-2.38Z" />
  <path class="cls-11" d="M330.35,241.85c-.22,1.08-1.71,1.92-3.51,1.92a4.94,4.94,0,0,1-2.49-.64,1.46,1.46,0,0,0,.44.68,1.43,1.43,0,0,0,.73.35v.05h4.61a1.32,1.32,0,0,0,1.41-1.19,1.27,1.27,0,0,0-1.19-1.17Z" />
  <path class="cls-4" d="M325,241.89a1.24,1.24,0,0,0-.33,0,2.07,2.07,0,0,0-1.87-1.07,2.23,2.23,0,0,0-.92.19,2.17,2.17,0,0,0-.75.56,1.34,1.34,0,0,0-.35,0,1.49,1.49,0,0,0-1.59,1.35,1.37,1.37,0,0,0,.37.86,1.33,1.33,0,0,0,.83.44h0l4.61.05a1.21,1.21,0,1,0,0-2.38Z" />
  <path class="cls-11" d="M325.2,241.91c-.22,1.08-1.7,1.91-3.51,1.91a4.83,4.83,0,0,1-2.49-.63,1.46,1.46,0,0,0,.44.68,1.55,1.55,0,0,0,.73.35h0l4.62.05a1.32,1.32,0,0,0,1.41-1.19,1.27,1.27,0,0,0-1.2-1.17Z" />
  <path class="cls-8" d="M321.68,243.87s.81,1.25,1.45,1.3l.2.42A2.22,2.22,0,0,1,321.68,243.87Z" />
  <path class="cls-10" d="M321.68,243.87a2.75,2.75,0,0,0,1.49,1.52l-.13-.26S322.58,245.19,321.68,243.87Z" />
  <path class="cls-8" d="M400.92,244.11s-1.08,1-1.71.92l-.29.37A2.23,2.23,0,0,0,400.92,244.11Z" />
  <path class="cls-9" d="M400.92,244.11a2.78,2.78,0,0,1-1.79,1.14l.17-.23S399.74,245.18,400.92,244.11Z" />
  <path class="cls-8" d="M396.28,243.86s-.1,1.49-.63,1.84l0,.46A2.22,2.22,0,0,0,396.28,243.86Z" />
  <path class="cls-10" d="M396.28,243.86a2.78,2.78,0,0,1-.56,2.06l0-.3S396.14,245.45,396.28,243.86Z" />
  <path class="cls-8" d="M399.78,243.41s-1,2.52-2.18,2.82l-.21.83A4.11,4.11,0,0,0,399.78,243.41Z" />
  <path class="cls-10" d="M399.78,243.41s-.49,2.41-2.17,3.24l.13-.52S398.6,246.08,399.78,243.41Z" />
  <path class="cls-8" d="M394.88,244.11s1,2.52,2.17,2.82l.22.83A4.09,4.09,0,0,1,394.88,244.11Z" />
  <path class="cls-10" d="M394.88,244.11s.48,2.42,2.16,3.25l-.13-.53S396,246.78,394.88,244.11Z" />
  <path class="cls-8" d="M397.17,242.32l-.29,11.18,1.14,0-.49-11.14Z" />
  <path class="cls-10" d="M397.32,242.32l.09,11.14h.6l-.49-11.14Z" />
  <path class="cls-4" d="M400.47,238.58a2.31,2.31,0,0,0-.46,0,3,3,0,0,0-3.84-1.21,3,3,0,0,0-1,.77,2.61,2.61,0,0,0-.48-.05,2.05,2.05,0,0,0-2.2,1.86,1.94,1.94,0,0,0,1.65,1.8v0h6.37a1.66,1.66,0,1,0,0-3.27Z" />
  <path class="cls-11" d="M400.76,238.61c-.32,1.49-2.36,2.64-4.83,2.64a6.62,6.62,0,0,1-3.43-.88,2,2,0,0,0,1.59,1.43v0h6.37a1.81,1.81,0,0,0,1.94-1.64A1.72,1.72,0,0,0,400.76,238.61Z" />
  <path class="cls-4" d="M402.19,241.8a1.66,1.66,0,0,0-.32,0,2.07,2.07,0,0,0-.79-.79,2,2,0,0,0-1.08-.27,2.08,2.08,0,0,0-.92.19,2.17,2.17,0,0,0-.75.56,1.34,1.34,0,0,0-.35,0,1.48,1.48,0,0,0-1.59,1.35,1.39,1.39,0,0,0,1.19,1.3v.05h4.62a1.31,1.31,0,0,0,1.41-1.19A1.33,1.33,0,0,0,402.19,241.8Z" />
  <path class="cls-11" d="M402.4,241.85c-.22,1.08-1.7,1.92-3.51,1.92a4.94,4.94,0,0,1-2.49-.64,1.49,1.49,0,0,0,1.17,1v.05h4.62A1.32,1.32,0,0,0,403.6,243a1.27,1.27,0,0,0-1.2-1.17Z" />
  <path class="cls-4" d="M397.05,241.89a1.12,1.12,0,0,0-.32,0,2.09,2.09,0,0,0-.79-.8,2,2,0,0,0-1.08-.27,2.23,2.23,0,0,0-.92.19,2.17,2.17,0,0,0-.75.56,1.34,1.34,0,0,0-.35,0,1.32,1.32,0,0,0-1.23,2.21,1.38,1.38,0,0,0,.84.44h0l4.61.05a1.31,1.31,0,0,0,1.41-1.19A1.33,1.33,0,0,0,397.05,241.89Z" />
  <path class="cls-11" d="M397.26,241.91c-.23,1.08-1.71,1.91-3.52,1.91a4.8,4.8,0,0,1-2.48-.63,1.49,1.49,0,0,0,1.17,1h0l4.61.05a1.32,1.32,0,0,0,1.41-1.19,1.26,1.26,0,0,0-.38-.81,1.31,1.31,0,0,0-.81-.36Z" />
  <path class="cls-8" d="M393.73,243.87s.81,1.25,1.45,1.3l.2.42A2.24,2.24,0,0,1,393.73,243.87Z" />
  <path class="cls-10" d="M393.73,243.87a2.75,2.75,0,0,0,1.49,1.52l-.12-.26S394.63,245.19,393.73,243.87Z" />
  <path class="cls-4" d="M353.46,199.05H309.38v.43h44.08Z" />
  <path class="cls-4" d="M389.53,223.09H340.05v.43h49.48Z" />
  <path class="cls-3" d="M418.27,265.3H313.6a2.68,2.68,0,0,0-2.68,2.68v75.36A2.68,2.68,0,0,0,313.6,346H418.27a2.68,2.68,0,0,0,2.68-2.68V268A2.68,2.68,0,0,0,418.27,265.3Z" />
  <path class="cls-1" d="M418.27,265.3H313.6a2.68,2.68,0,0,0-2.68,2.68v75.36A2.68,2.68,0,0,0,313.6,346H418.27a2.68,2.68,0,0,0,2.68-2.68V268A2.68,2.68,0,0,0,418.27,265.3Z" />
  <path class="cls-3" d="M403.92,282.36a9.77,9.77,0,0,0-4.9,0c-3.17.64-4.83-3-6.81-1.87a11,11,0,0,1-7,1.59c-3.64-.11-8.23-2.57-11.63-1.8s-4,1.17-6.18,4.36c-1.07,1.59-1.19,4.61-.44,8a25.33,25.33,0,0,0,4.79,10.08c2.42,3,6.57,5.7,12.06,7.48a43.11,43.11,0,0,0,9.19,1.88,54.19,54.19,0,0,0,10.88,0Z" />
  <path class="cls-12" d="M403.92,282.36a9.77,9.77,0,0,0-4.9,0c-3.17.64-4.83-3-6.81-1.87a11,11,0,0,1-7,1.59c-3.64-.11-8.23-2.57-11.63-1.8s-4,1.17-6.18,4.36c-1.07,1.59-1.19,4.61-.44,8a25.33,25.33,0,0,0,4.79,10.08c2.42,3,6.57,5.7,12.06,7.48a43.11,43.11,0,0,0,9.19,1.88,54.19,54.19,0,0,0,10.88,0Z" />
  <path class="cls-3" d="M367,286.22c.63-1.62,2.73-2.75,6.64-2.3l.46,0c3.07.19,7.41,2.18,11.07,2.67,3.23.44,5.16.24,6.92-.47,2.55-1,3.1,1,5.94,1.3a4.88,4.88,0,0,0,1.08,0c2.93-.24,4.83-.32,4.83-.32V306.6c-1.94.2-6.39.92-9.92,1H392.9c-3.28,0-4.49-.78-7.44-1.42a24.51,24.51,0,0,1-9.92-5.05,25.3,25.3,0,0,1-5.62-6.7C368.44,291.87,365.75,289.3,367,286.22Z" />
  <path class="cls-13" d="M367,286.22c.63-1.62,2.73-2.75,6.64-2.3l.46,0c3.07.19,7.41,2.18,11.07,2.67,3.23.44,5.16.24,6.92-.47,2.55-1,3.1,1,5.94,1.3a4.88,4.88,0,0,0,1.08,0c2.93-.24,4.83-.32,4.83-.32V306.6c-1.94.2-6.39.92-9.92,1H392.9c-3.28,0-4.49-.78-7.44-1.42a24.51,24.51,0,0,1-9.92-5.05,25.3,25.3,0,0,1-5.62-6.7C368.44,291.87,365.75,289.3,367,286.22Z" />
  <path class="cls-3" d="M366.52,287.8s2.86-2.31,7.61-.34,14.37,5.38,17.8,4.35,3,.26,6.17.69a13.65,13.65,0,0,0,5.82-.52v9.23a78.51,78.51,0,0,1-10,2.05c-3.68.34-3.32-.85-6.88-1.11s-11.64-4.34-14.25-5.93S366.64,292.58,366.52,287.8Z" />
  <path class="cls-14" d="M366.52,287.8s2.86-2.31,7.61-.34,14.37,5.38,17.8,4.35,3,.26,6.17.69a13.65,13.65,0,0,0,5.82-.52v9.23a78.51,78.51,0,0,1-10,2.05c-3.68.34-3.32-.85-6.88-1.11s-11.64-4.34-14.25-5.93S366.64,292.58,366.52,287.8Z" />
  <path class="cls-5" d="M347.09,307.1h-.3a2.33,2.33,0,0,1-1.9-1l-3.77-5.36a1.35,1.35,0,0,0-.64-.49,1.4,1.4,0,0,0-.81,0l-3.34.86a2.28,2.28,0,0,1-1.66-.19,2.26,2.26,0,0,1-1.1-1.27l-2-5.43a1.46,1.46,0,0,0-.28-.46l-.35-.38a1.36,1.36,0,0,0-1.87-.13l-1.86,1.53a2.45,2.45,0,0,1-.88.45,2.54,2.54,0,0,1-1,0,2.4,2.4,0,0,1-.92-.38,2.33,2.33,0,0,1-.68-.72l-1.41-2.39a1.56,1.56,0,0,0-.5-.49,1.46,1.46,0,0,0-.68-.17.45.45,0,0,1-.33-.14.5.5,0,0,1-.15-.34.49.49,0,0,1,.15-.34.45.45,0,0,1,.33-.14,2.3,2.3,0,0,1,1.15.3,2.41,2.41,0,0,1,.85.83l1.42,2.39a1.33,1.33,0,0,0,.4.42,1.37,1.37,0,0,0,1.12.2,1.26,1.26,0,0,0,.51-.27l1.87-1.52a2.31,2.31,0,0,1,3.19.22l.35.38a2.46,2.46,0,0,1,.48.79l2,5.43a1.28,1.28,0,0,0,.65.74,1.39,1.39,0,0,0,1,.12l3.31-.86a2.4,2.4,0,0,1,1.38.07,2.35,2.35,0,0,1,1.1.84l3.78,5.36a1.34,1.34,0,0,0,.49.42,1.32,1.32,0,0,0,.62.15h.3a1.39,1.39,0,0,0,.84-.28,1.41,1.41,0,0,0,.49-.75l5.68-22.55a2.35,2.35,0,0,1,1.6-1.65,2.4,2.4,0,0,1,1.19,0,2.32,2.32,0,0,1,1,.57l.37.34a2.33,2.33,0,0,1,.64,1l2.17,7.29a1.42,1.42,0,0,0,.48.69,1.3,1.3,0,0,0,.8.28,1.38,1.38,0,0,0,.81-.24,1.33,1.33,0,0,0,.51-.68l.09-.26a2.37,2.37,0,0,1,2.12-1.56l1.45,0a2.34,2.34,0,0,1,1.67.63l2.64,2.51a1.32,1.32,0,0,0,.48.29l13,4.7a1.37,1.37,0,0,0,.29.07l8.58,1.08a1.21,1.21,0,0,0,.38,0l9.41-1.44a.52.52,0,0,1,.36.09.51.51,0,0,1,.19.32.46.46,0,0,1-.09.36.48.48,0,0,1-.31.19l-9.41,1.44a2.22,2.22,0,0,1-.63,0l-8.59-1.08a2.15,2.15,0,0,1-.5-.12l-13-4.71a2.34,2.34,0,0,1-.81-.5l-2.64-2.51a1.36,1.36,0,0,0-.46-.28,1.14,1.14,0,0,0-.52-.09l-1.45.05a1.39,1.39,0,0,0-.76.26,1.41,1.41,0,0,0-.48.65l-.09.26a2.34,2.34,0,0,1-2.25,1.57,2.34,2.34,0,0,1-2.17-1.66L358,283.08a1.44,1.44,0,0,0-.37-.6l-.36-.34a1.41,1.41,0,0,0-.62-.34,1.38,1.38,0,0,0-1.3.38,1.24,1.24,0,0,0-.34.61l-5.69,22.55a2.37,2.37,0,0,1-.82,1.27,2.34,2.34,0,0,1-1.43.49Z" />
  <path class="cls-15" d="M403.92,317.25h-83.1a.34.34,0,0,1-.32-.32V274.17a.33.33,0,0,1,.1-.23.31.31,0,0,1,.22-.09.31.31,0,0,1,.32.32v42.44h82.78a.31.31,0,0,1,.32.32.31.31,0,0,1-.09.22A.33.33,0,0,1,403.92,317.25Z" />
  <path class="cls-3" d="M323.11,322.59h-1.3a.61.61,0,0,0-.61.61v1.29a.61.61,0,0,0,.61.61h1.3a.61.61,0,0,0,.61-.61V323.2A.61.61,0,0,0,323.11,322.59Z" />
  <path class="cls-16" d="M323.11,322.59h-1.3a.61.61,0,0,0-.61.61v1.29a.61.61,0,0,0,.61.61h1.3a.61.61,0,0,0,.61-.61V323.2A.61.61,0,0,0,323.11,322.59Z" />
  <path class="cls-3" d="M323.11,327.26h-1.3a.61.61,0,0,0-.61.61v1.3a.61.61,0,0,0,.61.61h1.3a.62.62,0,0,0,.61-.61v-1.3A.61.61,0,0,0,323.11,327.26Z" />
  <path class="cls-15" d="M323.11,331.94h-1.3a.61.61,0,0,0-.61.61v1.3a.6.6,0,0,0,.61.6h1.3a.61.61,0,0,0,.61-.6v-1.3A.61.61,0,0,0,323.11,331.94Z" />
  <path class="cls-3" d="M343.61,323.23H326.13a.61.61,0,1,0,0,1.22h17.48a.61.61,0,0,0,0-1.22Z" />
  <path class="cls-3" d="M343.61,327.91H326.13a.61.61,0,1,0,0,1.22h17.48a.61.61,0,0,0,0-1.22Z" />
  <path class="cls-3" d="M343.61,332.59H326.13a.61.61,0,1,0,0,1.22h17.48a.61.61,0,0,0,0-1.22Z" />
  <path class="cls-16" d="M343.61,323.23H326.13a.61.61,0,1,0,0,1.22h17.48a.61.61,0,0,0,0-1.22Z" />
  <path class="cls-16" d="M343.61,327.91H326.13a.61.61,0,1,0,0,1.22h17.48a.61.61,0,0,0,0-1.22Z" />
  <path class="cls-16" d="M343.61,332.59H326.13a.61.61,0,1,0,0,1.22h17.48a.61.61,0,0,0,0-1.22Z" />
  <path class="cls-3" d="M356.31,323.23H351.5a.61.61,0,1,0,0,1.22h4.81a.61.61,0,0,0,0-1.22Z" />
  <path class="cls-3" d="M356.31,327.91H351.5a.61.61,0,1,0,0,1.22h4.81a.61.61,0,0,0,0-1.22Z" />
  <path class="cls-3" d="M356.31,332.59H351.5a.61.61,0,1,0,0,1.22h4.81a.61.61,0,0,0,0-1.22Z" />
  <path class="cls-3" d="M370.11,322.59h-1.3a.61.61,0,0,0-.61.61v1.29a.61.61,0,0,0,.61.61h1.3a.61.61,0,0,0,.61-.61V323.2A.61.61,0,0,0,370.11,322.59Z" />
  <path class="cls-16" d="M370.11,322.59h-1.3a.61.61,0,0,0-.61.61v1.29a.61.61,0,0,0,.61.61h1.3a.61.61,0,0,0,.61-.61V323.2A.61.61,0,0,0,370.11,322.59Z" />
  <path class="cls-3" d="M370.11,327.26h-1.3a.61.61,0,0,0-.61.61v1.3a.61.61,0,0,0,.61.61h1.3a.62.62,0,0,0,.61-.61v-1.3A.61.61,0,0,0,370.11,327.26Z" />
  <path class="cls-15" d="M370.11,331.94h-1.3a.61.61,0,0,0-.61.61v1.3a.6.6,0,0,0,.61.6h1.3a.61.61,0,0,0,.61-.6v-1.3A.61.61,0,0,0,370.11,331.94Z" />
  <path class="cls-3" d="M390.61,323.23H373.13a.61.61,0,1,0,0,1.22h17.48a.61.61,0,0,0,0-1.22Z" />
  <path class="cls-3" d="M390.61,327.91H373.13a.61.61,0,1,0,0,1.22h17.48a.61.61,0,0,0,0-1.22Z" />
  <path class="cls-3" d="M390.61,332.59H373.13a.61.61,0,1,0,0,1.22h17.48a.61.61,0,0,0,0-1.22Z" />
  <path class="cls-16" d="M390.61,323.23H373.13a.61.61,0,1,0,0,1.22h17.48a.61.61,0,0,0,0-1.22Z" />
  <path class="cls-16" d="M390.61,327.91H373.13a.61.61,0,1,0,0,1.22h17.48a.61.61,0,0,0,0-1.22Z" />
  <path class="cls-16" d="M390.61,332.59H373.13a.61.61,0,1,0,0,1.22h17.48a.61.61,0,0,0,0-1.22Z" />
  <path class="cls-3" d="M403.31,323.23H398.5a.61.61,0,1,0,0,1.22h4.81a.61.61,0,0,0,0-1.22Z" />
  <path class="cls-3" d="M403.31,327.91H398.5a.61.61,0,1,0,0,1.22h4.81a.61.61,0,0,0,0-1.22Z" />
  <path class="cls-3" d="M403.31,332.59H398.5a.61.61,0,1,0,0,1.22h4.81a.61.61,0,0,0,0-1.22Z" />
  <path class="cls-3" d="M556.37,265.51H431.63a2.8,2.8,0,0,0-2.8,2.8v74.91a2.8,2.8,0,0,0,2.8,2.8H556.37a2.79,2.79,0,0,0,2.79-2.8V268.31A2.79,2.79,0,0,0,556.37,265.51Z" />
  <path class="cls-1" d="M556.37,265.51H431.63a2.8,2.8,0,0,0-2.8,2.8v74.91a2.8,2.8,0,0,0,2.8,2.8H556.37a2.79,2.79,0,0,0,2.79-2.8V268.31A2.79,2.79,0,0,0,556.37,265.51Z" />
  <path class="cls-17" d="M559.16,323.69H428.9V324H559.16Z" />
  <path class="cls-17" d="M559.16,302H428.9v.29H559.16Z" />
  <path class="cls-17" d="M559.16,280.25H428.9v.28H559.16Z" />
  <path class="cls-18" d="M428.9,313s18.43,6.87,31.55,0S487.73,290.4,507,306.7c16,13.56,23.63-16.3,34.26-16.3s17.91,20.15,17.91,20.15v32.68a2.8,2.8,0,0,1-2.79,2.79H431.63a2.8,2.8,0,0,1-1.07-.21,3,3,0,0,1-.91-.61,2.77,2.77,0,0,1-.82-2Z" />
  <path class="cls-3" d="M446.38,316.28a46.55,46.55,0,0,1-6.67-.48,56.79,56.79,0,0,1-10.91-2.59l.2-.53a56.54,56.54,0,0,0,10.8,2.55c5.66.78,13.81,1,20.52-2.55,2.44-1.28,4.9-2.86,7.49-4.52,11-7.06,23.56-15.08,39.37-1.7,3,2.56,5.86,3.69,8.68,3.44,5.24-.48,9.49-5.63,13.6-10.62,3.89-4.72,7.57-9.18,11.79-9.18,10.7,0,17.88,19.51,18.17,20.34l-.53.19a60.68,60.68,0,0,0-4.95-10c-5.14-8.21-9.74-9.93-12.69-9.93-4,0-7.55,4.36-11.35,9-4.19,5.07-8.51,10.32-14,10.81-3,.27-5.95-.89-9.1-3.56-6.92-5.86-13.79-8-21-6.7-6.36,1.19-12.13,4.88-17.7,8.45-2.61,1.67-5.07,3.24-7.54,4.54A30.28,30.28,0,0,1,446.38,316.28Z" />
  <path class="cls-3" d="M493.88,300.72a.92.92,0,1,0-.92-.92A.92.92,0,0,0,493.88,300.72Z" />
  <path class="cls-3" d="M515.71,311.17a.92.92,0,1,0-.92-.92A.92.92,0,0,0,515.71,311.17Z" />
  <path class="cls-3" d="M541.7,291.32a.92.92,0,0,0,0-1.84.92.92,0,1,0,0,1.84Z" />
  <path class="cls-3" d="M472.18,306.83a.92.92,0,1,0-.91-.92A.92.92,0,0,0,472.18,306.83Z" />
  <path class="cls-3" d="M450.55,316.68a.92.92,0,1,0-.92-.92A.92.92,0,0,0,450.55,316.68Z" />
  <path class="cls-3" d="M428.9,314a.92.92,0,1,0-.92-.92A.92.92,0,0,0,428.9,314Z" />
  <path class="cls-3" d="M559.16,311.17a.92.92,0,1,0-.92-.92A.92.92,0,0,0,559.16,311.17Z" />
  <path class="cls-5" d="M476.45,270.21H437.54a1.81,1.81,0,0,0-1.81,1.81h0a1.81,1.81,0,0,0,1.81,1.81h38.91a1.81,1.81,0,0,0,1.81-1.81h0A1.81,1.81,0,0,0,476.45,270.21Z" />
  <path class="cls-3" d="M466.5,202.26l-.38-.41-7.07,6.6.38.41a16.34,16.34,0,0,1-22.4,23.7l-.43-.37-6.18,7.43.43.35a26,26,0,0,0,35.65-37.71Z" />
  <path class="cls-16" d="M466.5,202.26l-.38-.41-7.07,6.6.38.41a16.34,16.34,0,0,1-22.4,23.7l-.43-.37-6.18,7.43.43.35a26,26,0,0,0,35.65-37.71Z" />
  <path class="cls-19" d="M466.5,202.26A25.9,25.9,0,0,0,455,195.11h0l-.53-.15-.53-.14a26,26,0,0,0-24.51,6.46l-.4.38,6.71,7,.4-.38a16.22,16.22,0,0,1,11.33-4.57,16.46,16.46,0,0,1,4.41.6h0a16.4,16.4,0,0,1,7.53,4.59l.37.4,7.07-6.59Z" />
  <path class="cls-6" d="M437,232.54a16.36,16.36,0,0,1-.87-24.32l.4-.39-6.71-7-.4.38a26,26,0,0,0,1.4,38.71l.42.35,6.19-7.41Z" />
  <g class="cls-20">
    <path class="cls-2" d="M522.63,208.18H482.45a1.57,1.57,0,0,0,0,3.13h40.18a1.57,1.57,0,0,0,0-3.13Z" />
  </g>
  <g class="cls-20">
    <path class="cls-2" d="M534.15,201.38h-51.7a1.56,1.56,0,0,0,0,3.12h51.7a1.56,1.56,0,1,0,0-3.12Z" />
  </g>
  <path class="cls-3" d="M484,219.16h-2.13a1,1,0,0,0-1,1v2.13a1,1,0,0,0,1,1H484a1,1,0,0,0,1-1v-2.13A1,1,0,0,0,484,219.16Z" />
  <path class="cls-16" d="M484,219.16h-2.13a1,1,0,0,0-1,1v2.13a1,1,0,0,0,1,1H484a1,1,0,0,0,1-1v-2.13A1,1,0,0,0,484,219.16Z" />
  <path class="cls-3" d="M484,226.82h-2.13a1,1,0,0,0-1,1V230a1,1,0,0,0,1,1H484a1,1,0,0,0,1-1v-2.13A1,1,0,0,0,484,226.82Z" />
  <path class="cls-16" d="M484,226.82h-2.13a1,1,0,0,0-1,1V230a1,1,0,0,0,1,1H484a1,1,0,0,0,1-1v-2.13A1,1,0,0,0,484,226.82Z" />
  <path class="cls-3" d="M484,234.48h-2.13a1,1,0,0,0-1,1v2.13a1,1,0,0,0,1,1H484a1,1,0,0,0,1-1v-2.13A1,1,0,0,0,484,234.48Z" />
  <path class="cls-16" d="M484,234.48h-2.13a1,1,0,0,0-1,1v2.13a1,1,0,0,0,1,1H484a1,1,0,0,0,1-1v-2.13A1,1,0,0,0,484,234.48Z" />
  <path class="cls-3" d="M536.75,220.22H489a1,1,0,0,0,0,2h47.79a1,1,0,0,0,0-2Z" />
  <path class="cls-3" d="M536.75,227.88H489a1,1,0,1,0,0,2h47.79a1,1,0,0,0,0-2Z" />
  <path class="cls-3" d="M536.75,235.54H489a1,1,0,0,0,0,2h47.79a1,1,0,0,0,0-2Z" />
  <path class="cls-16" d="M536.75,220.22H489a1,1,0,0,0,0,2h47.79a1,1,0,0,0,0-2Z" />
  <path class="cls-16" d="M536.75,227.88H489a1,1,0,1,0,0,2h47.79a1,1,0,0,0,0-2Z" />
  <path class="cls-16" d="M536.75,235.54H489a1,1,0,0,0,0,2h47.79a1,1,0,0,0,0-2Z" />
  <path class="cls-1" d="M446,230.45V229a.45.45,0,0,0-.12-.33.52.52,0,0,0-.32-.16,10.65,10.65,0,0,1-3.51-.87.45.45,0,0,1-.23-.24.47.47,0,0,1,0-.33l.51-2a.66.66,0,0,1,.09-.19.7.7,0,0,1,.17-.13.52.52,0,0,1,.21,0,.49.49,0,0,1,.21,0,8.86,8.86,0,0,0,3.69.85c1.44,0,2.43-.57,2.43-1.57s-.81-1.57-2.7-2.2c-2.71-.92-4.56-2.19-4.56-4.64,0-2.14,1.43-3.83,3.92-4.44a.48.48,0,0,0,.27-.17.54.54,0,0,0,.1-.3v-1.53a.43.43,0,0,1,0-.19.49.49,0,0,1,.1-.15.42.42,0,0,1,.16-.11.41.41,0,0,1,.19,0h1.51a.47.47,0,0,1,.35.15.48.48,0,0,1,.14.34V212a.51.51,0,0,0,.13.33.49.49,0,0,0,.32.16,8.88,8.88,0,0,1,2.83.63.49.49,0,0,1,.25.24.45.45,0,0,1,0,.34l-.5,1.92a.52.52,0,0,1-.1.18.4.4,0,0,1-.16.13.46.46,0,0,1-.2.05.78.78,0,0,1-.21,0,7.61,7.61,0,0,0-3.12-.64c-1.64,0-2.17.72-2.17,1.43s.88,1.38,3,2.17c3,1.06,4.23,2.46,4.23,4.76s-1.45,4-4.13,4.59a.54.54,0,0,0-.27.18.45.45,0,0,0-.1.3v1.71a.41.41,0,0,1,0,.19.54.54,0,0,1-.1.16.91.91,0,0,1-.16.11.63.63,0,0,1-.19,0h-1.51a.43.43,0,0,1-.19,0,.33.33,0,0,1-.15-.11.36.36,0,0,1-.11-.16A.58.58,0,0,1,446,230.45Z" />
  <path class="cls-6" d="M369.62,194.83l-6.36-6.37-6.37,6.37h4V208h4.8V194.83Z" />
  <path class="cls-6" d="M382.68,208.12l-6.36-6.37L370,208.12h4v9h4.8v-9Z" />
  <path class="cls-3" d="M298.16,163.1H570a3.53,3.53,0,0,1,3.53,3.53V173h-279v-6.41a3.53,3.53,0,0,1,3.54-3.53Z" />
  <path class="cls-21" d="M298.16,163.1H570a3.53,3.53,0,0,1,3.53,3.53V173h-279v-6.41a3.53,3.53,0,0,1,3.54-3.53Z" />
  <path class="cls-3" d="M305.27,170.46a2.39,2.39,0,1,0-2.39-2.39A2.39,2.39,0,0,0,305.27,170.46Z" />
  <path class="cls-6" d="M313,170.46a2.39,2.39,0,1,0-2.39-2.39A2.39,2.39,0,0,0,313,170.46Z" />
  <path class="cls-3" d="M320.75,170.46a2.39,2.39,0,1,0-2.39-2.39A2.39,2.39,0,0,0,320.75,170.46Z" />
  <path class="cls-16" d="M320.75,170.46a2.39,2.39,0,1,0-2.39-2.39A2.39,2.39,0,0,0,320.75,170.46Z" />
  <path class="cls-22" d="M543.71,262.11a5.71,5.71,0,0,1-11.4.53c0-.17,0-.35,0-.53a5.8,5.8,0,0,1,.43-2.18,5.72,5.72,0,0,1,1.24-1.86,5.79,5.79,0,0,1,1.85-1.24,5.74,5.74,0,0,1,3.42-.31,5.71,5.71,0,0,1,4.48,5.59Z" />
  <path class="cls-23" d="M543.33,260.05a4.78,4.78,0,0,1-5.1,3.08,4.78,4.78,0,0,1-4.12-4.3c0-.15,0-.3,0-.44a3.71,3.71,0,0,1,0-.47,5.76,5.76,0,0,0-1.83,4.19c0,.18,0,.35,0,.53a5.69,5.69,0,0,0,4.57,5.08,5.69,5.69,0,0,0,2.43,0,5.69,5.69,0,0,0,3.75-2.9,5.77,5.77,0,0,0,.65-2.33,5.93,5.93,0,0,0-.38-2.4Z" />
  <path class="cls-6" d="M510.91,276.94l-9.78,19.64-13.35-.27-1.21,6.39,15,3a6.41,6.41,0,0,0,6.35-2.58l7.39-10.4" />
  <path class="cls-24" d="M471.48,293.69l-3.52-.48-4.19,1.22a.42.42,0,0,0-.2.1.52.52,0,0,0-.14.19.46.46,0,0,0,0,.23.52.52,0,0,0,.07.22h0a.65.65,0,0,0,.3.22.7.7,0,0,0,.38,0l4-.76,2.5.81-2.5-.81-3.48,1a.34.34,0,0,0-.17.08.61.61,0,0,0-.12.16.53.53,0,0,0,0,.18.41.41,0,0,0,.05.19.57.57,0,0,0,.27.21.5.5,0,0,0,.34,0l3.52-.67,3.64,1.15-3.64-1.15-2.5,1a.39.39,0,0,0-.1.08.23.23,0,0,0-.06.12.28.28,0,0,0,0,.13.22.22,0,0,0,.05.11.37.37,0,0,0,.2.12.45.45,0,0,0,.23,0l2.91-.72,3.44.85Z" />
  <path class="cls-2" d="M471.48,293.69l-3.52-.48-4.19,1.22a.42.42,0,0,0-.2.1.52.52,0,0,0-.14.19.46.46,0,0,0,0,.23.52.52,0,0,0,.07.22h0a.65.65,0,0,0,.3.22.7.7,0,0,0,.38,0l4-.76,2.5.81-2.5-.81-3.48,1a.34.34,0,0,0-.17.08.61.61,0,0,0-.12.16.53.53,0,0,0,0,.18.41.41,0,0,0,.05.19.57.57,0,0,0,.27.21.5.5,0,0,0,.34,0l3.52-.67,3.64,1.15-3.64-1.15-2.5,1a.39.39,0,0,0-.1.08.23.23,0,0,0-.06.12.28.28,0,0,0,0,.13.22.22,0,0,0,.05.11.37.37,0,0,0,.2.12.45.45,0,0,0,.23,0l2.91-.72,3.44.85Z" />
  <path class="cls-8" d="M461.13,288.49l-.82.83L466,295l.83-.83Z" />
  <path class="cls-5" d="M465.48,291.26a1.7,1.7,0,0,0-2.41,0,1.71,1.71,0,0,0,0,2.41l6,6a1.7,1.7,0,0,0,2.41,0,1.71,1.71,0,0,0,0-2.41Z" />
  <path class="cls-8" d="M457,292.15a6.94,6.94,0,1,0-6.95-6.94A6.94,6.94,0,0,0,457,292.15Z" />
  <path class="cls-3" d="M457,291.44a6.23,6.23,0,1,0-6.24-6.23A6.23,6.23,0,0,0,457,291.44Z" />
  <path class="cls-25" d="M457,291.44a6.23,6.23,0,1,0-6.24-6.23A6.23,6.23,0,0,0,457,291.44Z" />
  <path class="cls-21" d="M457.87,279a6.25,6.25,0,0,0-6.06,2.77,6.31,6.31,0,0,0-1,3.32,6.24,6.24,0,0,0,.93,3.34Z" />
  <path class="cls-21" d="M453.48,290.33l6.79-10.44a7.1,7.1,0,0,0-1-.47l-6.66,10.22a6.2,6.2,0,0,0,.83.69Z" />
  <path class="cls-21" d="M455.84,291.34a6.11,6.11,0,0,0,3.63-.37,6.23,6.23,0,0,0,3.81-5.85,6.28,6.28,0,0,0-1.14-3.47Z" />
  <path class="cls-24" d="M471.27,292.55l5.18,3a2.27,2.27,0,0,0,1,.29l10.35.47-1.21,6.39-8.28-1.64a2,2,0,0,0-.85,0l-.45.1a6.59,6.59,0,0,1-5.11-.64h0a1.75,1.75,0,0,0-.7-.23l-3.08-.32a.2.2,0,0,1-.16-.07.21.21,0,0,1-.07-.15h0a1.22,1.22,0,0,1,.35-.77,1.21,1.21,0,0,1,.77-.36l1.53-.22a1.07,1.07,0,0,0,.93-1.52l-1.54-2.72a.67.67,0,0,0-.19-.22.68.68,0,0,0-.26-.12L464,292.39a.45.45,0,0,1-.36-.48h0a.5.5,0,0,1,.23-.32.47.47,0,0,1,.38-.08c1.39.17,5.64.8,6.65.95A1.43,1.43,0,0,1,471.27,292.55Z" />
  <path class="cls-2" d="M501.13,296.58l1.74.06a.94.94,0,0,0,.56-.18.91.91,0,0,0,.36-.46l2.87-10.57Z" />
  <path class="cls-6" d="M542,444.1a8,8,0,0,0-.37,3l0,8.42a8.86,8.86,0,0,0,1.19,4.17l.17.3a2.38,2.38,0,0,0,2.09,1.21h2.4a2.4,2.4,0,0,0,2.34-1.83h0a9.06,9.06,0,0,0,.12-3.81l-2.05-9a9.53,9.53,0,0,0-.73-2.44Z" />
  <path class="cls-24" d="M506.88,407.56l-4.22,32.5a9.61,9.61,0,0,1-1,3l-6.94,13.09,1.62,2.23,6.35-3.19L508.33,445a17.13,17.13,0,0,1,.75-5.13l8.75-32.26Z" />
  <path class="cls-2" d="M502.7,445.44a20.31,20.31,0,0,0,1.64-4.25L508.91,416a3.71,3.71,0,0,1,.77-1.67,3.55,3.55,0,0,1,1.47-1.09l5.79-2.38.25-1-11,2.59-3.57,27.55a10.16,10.16,0,0,1-1,3l-6.94,13.09,1,1.65Z" />
  <path class="cls-6" d="M490.24,458.17l4.47-2a6.9,6.9,0,0,0,6.41-2.42l7.21-8.77a15.84,15.84,0,0,1,1.33,9l-1.05,7.28h-.83l-.22-7.48a.66.66,0,0,0-.12-.33.58.58,0,0,0-.28-.21.63.63,0,0,0-.36,0,.57.57,0,0,0-.29.2l-4.4,5.4A6.6,6.6,0,0,1,497,461.2h-8a.77.77,0,0,1-.36-.09.72.72,0,0,1-.27-.25.7.7,0,0,1-.12-.34.78.78,0,0,1,.06-.37,3.83,3.83,0,0,1,1.94-2Z" />
  <path class="cls-24" d="M541.69,440.32a69.4,69.4,0,0,1,.47,9.12l-.06,3.64a3,3,0,0,0,.9,2,2.94,2.94,0,0,0,2.06.84h.49a3.06,3.06,0,0,0,1.23-.27,3,3,0,0,0,1.61-1.86,3,3,0,0,0,.09-1.26l-.83-4.31a27,27,0,0,1-.46-6.65l2.35-42-11.34,3.23Z" />
  <path class="cls-6" d="M546.22,273.54l-9.58-2-15.62.16-5.74,1.54c-3.58,1.13-5.36,4.27-5.32,8l.53,2.73L509,289.2c-.87,3.32.25,5.25,2.55,7.94A4.58,4.58,0,0,1,513,300s1.4,5.29,1.65,7.47a97.08,97.08,0,0,1,.64,15l29.48-.07a1.69,1.69,0,0,0,1.3-2.66,26.49,26.49,0,0,1-2.38-7.39c-1.23-11.05,1.91-24.17,1.91-24.17l6.18-6.85A7.46,7.46,0,0,0,546.22,273.54Z" />
  <path class="cls-5" d="M516,322.38l-9.79,90.37,43.23-11.1.43-37.18A160.74,160.74,0,0,0,545,323.15l-.22-.86Z" />
  <path class="cls-2" d="M530.48,310.88a.24.24,0,0,1-.14-.05.31.31,0,0,1-.06-.13.23.23,0,0,1,0-.14.2.2,0,0,1,.12-.08l12.32-2.39a.21.21,0,0,1,.24.16.21.21,0,0,1,0,.15.2.2,0,0,1-.13.08l-12.32,2.4Z" />
  <path class="cls-24" d="M525.55,311.38l-3.54-.7-.79.77.93,1.12Z" />
  <path class="cls-2" d="M525.55,311.38l-3.54-.7-.79.77.93,1.12Z" />
  <path class="cls-2" d="M538.38,404.42l3.31,35.9c.15,1.24.25,2.49.32,3.75v0c.11,1.77.16,3.55.13,5.33l0,3.64a2.94,2.94,0,0,0,2.8,2.86c-1.38-1.07-1.27-2.83-1.31-4.15l-2.46-43.5a3.29,3.29,0,0,1,.45-1.87,3.25,3.25,0,0,1,1.44-1.28l6.38-2.94,0-.57Z" />
  <path class="cls-2" d="M487.75,296.45l-1.36,2.93a2.52,2.52,0,0,1-1.1,1.16,2.56,2.56,0,0,1-1.58.27L478.6,300a2.33,2.33,0,0,0-1.23.07,10.46,10.46,0,0,1-5.59.39l.08,0h0a6.59,6.59,0,0,0,5.11.64l.45-.1a2,2,0,0,1,.85,0l8.28,1.64Z" />
  <path class="cls-2" d="M524.91,317.45l4.92-1.05,14.32-1.21.15.05a39.79,39.79,0,0,0,1.53,4l-2.1.08a71,71,0,0,1-9.78-.49,35.07,35.07,0,0,0-9,.11h0Z" />
  <path class="cls-6" d="M551.4,278.54l-3,.2c-2.4,4-3.82,7.14-3.69,11.78l-.2,1.83,5.78,14.74-14.18,2.72,2.27,5.83,18.52-1.24a4.33,4.33,0,0,0,3.64-5.83Z" />
  <path class="cls-6" d="M514.67,325.61l.31-3.23,29.75-.08.82,3.31Z" />
  <path class="cls-11" d="M534.81,325.61a10.59,10.59,0,0,0-10.49,9.19L514.1,410.71l-7.89,2,9.41-87.13Z" />
  <path class="cls-8" d="M529.58,323.72l-10.86-18.79a1.09,1.09,0,0,0-.53-.44,1,1,0,0,0-.69,0l-15.3,5.19a.88.88,0,0,0-.36.21.92.92,0,0,0-.24.35,1,1,0,0,0-.07.42.93.93,0,0,0,.12.4l10.22,17.81a1,1,0,0,0,1.16.47L529,325.12a.87.87,0,0,0,.4-.19.94.94,0,0,0,.27-.35,1,1,0,0,0,.08-.44A1.06,1.06,0,0,0,529.58,323.72Z" />
  <path class="cls-26" d="M529.58,323.72l-10.86-18.79a1.09,1.09,0,0,0-.53-.44,1,1,0,0,0-.69,0l-15.3,5.19a.88.88,0,0,0-.36.21.92.92,0,0,0-.24.35,1,1,0,0,0-.07.42.93.93,0,0,0,.12.4l10.22,17.81a1,1,0,0,0,1.16.47L529,325.12a.87.87,0,0,0,.4-.19.94.94,0,0,0,.27-.35,1,1,0,0,0,.08-.44A1.06,1.06,0,0,0,529.58,323.72Z" />
  <path class="cls-22" d="M529,323.91l-10.85-18.78a1.06,1.06,0,0,0-.54-.44,1,1,0,0,0-.69,0l-15.28,5.17a1,1,0,0,0-.37.22.92.92,0,0,0-.24.34,1,1,0,0,0,.06.83l10.22,17.81a1.08,1.08,0,0,0,.49.43,1.06,1.06,0,0,0,.66,0l15.92-4.21a1,1,0,0,0,.39-.2.94.94,0,0,0,.27-.35,1,1,0,0,0,.08-.42A1.06,1.06,0,0,0,529,323.91Z" />
  <path class="cls-8" d="M513.23,314.12a.72.72,0,0,1-.2-.31.67.67,0,0,1,0-.37,2.18,2.18,0,0,0-1.38-.06.78.78,0,0,0-.32,1.4,2.21,2.21,0,0,0,1,.55,2.18,2.18,0,0,0,1.16,0A.81.81,0,0,0,514,315a.76.76,0,0,0,.19-.48,1.66,1.66,0,0,1-.91-.44Z" />
  <path class="cls-23" d="M504,312c.15-.28,0-.67-.44-.89s-.84-.18-1,.09.05.68.44.89S503.81,312.22,504,312Z" />
  <path class="cls-8" d="M503.84,312c.15-.27,0-.67-.44-.89s-.84-.17-1,.1,0,.67.44.89S503.69,312.29,503.84,312Z" />
  <path class="cls-27" d="M503.59,311.88c.1-.18,0-.44-.3-.58a.48.48,0,0,0-.65.05c-.1.18,0,.44.29.59S503.49,312.06,503.59,311.88Z" />
  <path class="cls-23" d="M502.79,311.6a.31.31,0,0,1,0-.13.57.57,0,0,1,0-.14.24.24,0,0,1,.1-.1.4.4,0,0,1,.13,0h-.09a.3.3,0,0,0-.32.42.73.73,0,0,0,.26.29.68.68,0,0,0,.38.12h.08a.81.81,0,0,1-.33-.14A.88.88,0,0,1,502.79,311.6Z" />
  <path class="cls-24" d="M536.11,309.81l-8.24,1.57a1.55,1.55,0,0,1-.31,0l-5.22-.08a4.34,4.34,0,0,0-1.6.27l-6,2.21a.59.59,0,0,0-.28.26.53.53,0,0,0,.6.76l5.77-1.51-5.47,3a.55.55,0,0,0-.27.33.51.51,0,0,0,0,.42h0a.57.57,0,0,0,.31.28.58.58,0,0,0,.41,0l5.59-2.21-5,2a.58.58,0,0,0-.29.29.56.56,0,0,0,.24.73.56.56,0,0,0,.42.05l5.13-1.41L517.42,318a.39.39,0,0,0-.27.21.43.43,0,0,0,0,.33h0a.46.46,0,0,0,.2.29.5.5,0,0,0,.34.06l11.79-2.51,9-.76Z" />
  <path class="cls-2" d="M516.35,317.35a.25.25,0,0,1-.13-.05.19.19,0,0,1-.07-.12.23.23,0,0,1,0-.14.22.22,0,0,1,.1-.09L521,315.1l.08,0,.08,0,.06,0,.05.06a.29.29,0,0,1,0,.16.2.2,0,0,1-.11.11l-4.69,1.85-.07,0Z" />
  <path class="cls-2" d="M517.41,318.22a.19.19,0,0,1-.13-.05.24.24,0,0,1-.07-.13.32.32,0,0,1,0-.14.21.21,0,0,1,.11-.08l4.43-1.21a.18.18,0,0,1,.16,0,.19.19,0,0,1,.09.12.19.19,0,0,1,0,.08.11.11,0,0,1,0,.07.1.1,0,0,1,0,.06l-.07,0-4.43,1.21Z" />
  <path class="cls-2" d="M517.08,318.56a.45.45,0,0,0,.54.35l11.8-2.51,9-.76-2.27-5.83.32,3.37a1.28,1.28,0,0,1-.26.89,1.34,1.34,0,0,1-.79.48l-6.75,1.09Z" />
  <path class="cls-5" d="M536.11,309.81l1.26-.27,2.44,6-1.43.09Z" />
  <path class="cls-5" d="M541.07,277.76a.49.49,0,1,0-.48-.48A.49.49,0,0,0,541.07,277.76Z" />
  <path class="cls-5" d="M529.18,279.4a.49.49,0,1,0-.48-.48A.48.48,0,0,0,529.18,279.4Z" />
  <path class="cls-5" d="M546,312.5a.49.49,0,1,0-.48-.48A.48.48,0,0,0,546,312.5Z" />
  <path class="cls-5" d="M541.56,289.52a.48.48,0,1,0-.49-.48A.48.48,0,0,0,541.56,289.52Z" />
  <path class="cls-5" d="M553.09,289.84a.49.49,0,1,0-.49-.49A.49.49,0,0,0,553.09,289.84Z" />
  <path class="cls-5" d="M523.1,287.13a.49.49,0,0,0,.48-.48.49.49,0,0,0-1,0A.49.49,0,0,0,523.1,287.13Z" />
  <path class="cls-5" d="M513,290.49a.49.49,0,1,0-.48-.48A.48.48,0,0,0,513,290.49Z" />
  <path class="cls-5" d="M508.71,284.84a.48.48,0,1,0,0-1,.48.48,0,1,0,0,1Z" />
  <path class="cls-5" d="M507.23,299.67a.49.49,0,1,0-.48-.49A.49.49,0,0,0,507.23,299.67Z" />
  <path class="cls-5" d="M498.46,303.43A.49.49,0,0,0,499,303a.49.49,0,1,0-.49.48Z" />
  <path class="cls-5" d="M492.44,298.06a.49.49,0,1,0-.48-.49A.48.48,0,0,0,492.44,298.06Z" />
  <path class="cls-5" d="M518.53,275.93a.49.49,0,1,0-.48-.48A.48.48,0,0,0,518.53,275.93Z" />
  <path class="cls-5" d="M530.87,293.39a.48.48,0,1,0,0-1,.48.48,0,0,0,0,1Z" />
  <path class="cls-5" d="M527.12,308.06a.49.49,0,1,0-.49-.49A.49.49,0,0,0,527.12,308.06Z" />
  <path class="cls-5" d="M534.92,318.5a.49.49,0,1,0-.48-.48A.49.49,0,0,0,534.92,318.5Z" />
  <path class="cls-5" d="M521.22,300.06a.49.49,0,0,0,0-1,.49.49,0,0,0,0,1Z" />
  <path class="cls-5" d="M550.45,301a.48.48,0,0,0,0-1,.48.48,0,0,0,0,1Z" />
  <path class="cls-5" d="M538,303.17a.49.49,0,1,0-.48-.48A.48.48,0,0,0,538,303.17Z" />
  <path class="cls-5" d="M535.09,274.34l3.77-2.3-2.23-.45-15.62.16-1.52.41,3.74,2.23a11.45,11.45,0,0,0,11.86-.05Z" />
  <path class="cls-24" d="M534.44,259.09l.29,10.52a1.92,1.92,0,0,0,.4,1.14,2,2,0,0,0,1,.67l1.19.32-2.74,1.7a10.17,10.17,0,0,1-10.6.1l-3-1.78,1.35-.37a1.88,1.88,0,0,0,1.4-1.64l1.38-12.48Z" />
  <path class="cls-24" d="M527.13,266.85l.5,0a6.46,6.46,0,0,0,6.74-6.18l.39-9.09a2.13,2.13,0,0,0-.13-.83,2,2,0,0,0-.43-.72,2.1,2.1,0,0,0-.68-.5,2.31,2.31,0,0,0-.82-.21l-8.46-.36a2.79,2.79,0,0,0-2,.74,3,3,0,0,0-.65.88,3.05,3.05,0,0,0-.26,1.07l-.36,8.44a6.48,6.48,0,0,0,6.18,6.74Z" />
  <path class="cls-22" d="M527.82,257.63a.71.71,0,1,0-.7-.7A.7.7,0,0,0,527.82,257.63Z" />
  <path class="cls-1" d="M527.53,256.91a.15.15,0,0,0,.15-.15.15.15,0,0,0-.3,0A.15.15,0,0,0,527.53,256.91Z" />
  <path class="cls-22" d="M522.39,257.63a.71.71,0,1,0-.7-.7A.7.7,0,0,0,522.39,257.63Z" />
  <path class="cls-1" d="M522.08,256.89a.15.15,0,0,0,.15-.15.15.15,0,0,0-.15-.15.14.14,0,0,0-.15.15A.15.15,0,0,0,522.08,256.89Z" />
  <g class="cls-28">
    <path class="cls-10" d="M524.91,261l1,.07A.22.22,0,0,0,526,261a.2.2,0,0,0,.06-.14.18.18,0,0,0,0-.14.21.21,0,0,0-.12-.07l-1-.08a.41.41,0,0,1-.29-.15.38.38,0,0,1-.1-.31.47.47,0,0,1,0-.16.41.41,0,0,1,.1-.13.46.46,0,0,1,.15-.09l.17,0a.18.18,0,0,0,.14,0,.29.29,0,0,0,.08-.14.2.2,0,0,0-.06-.15.17.17,0,0,0-.13-.07.84.84,0,0,0-.87.77.82.82,0,0,0,.74.9Z" />
  </g>
  <path class="cls-22" d="M538.87,251.41a27.14,27.14,0,0,1-2.29,7.24L535,256.44l-.8,1a.62.62,0,0,1-.27.21c-.29.09-.49-.28-.57-.58a12.67,12.67,0,0,1-.29-4.25,4.61,4.61,0,0,1-3.25-2.61,7,7,0,0,1-3.49,2,11.32,11.32,0,0,1-4,.13,1,1,0,0,0-.78.1,1,1,0,0,0-.22.36,1,1,0,0,0,0,.42l-.16,3.73c0-.08-.17-.2-.22-.26A7.21,7.21,0,0,1,519,253l-.06-.43a5.66,5.66,0,0,1,0-1.3,2.32,2.32,0,0,1,.05-.38,3.08,3.08,0,0,1,.41-1.13,3.13,3.13,0,0,1,.83-.87,2.46,2.46,0,0,0,.64-.47,1.89,1.89,0,0,0,.26-.95,6.37,6.37,0,0,1,.81-2.36,6.16,6.16,0,0,1,1.68-1.84,8.88,8.88,0,0,1,4.65-1.68,10.41,10.41,0,0,1,7.62,2.4,8.55,8.55,0,0,1,3,7.46" />
  <path class="cls-24" d="M533.89,261a3.55,3.55,0,0,0,4-2.49c.91-3-2.82-3.88-3.62-.86l-.7,3.32Z" />
  <path class="cls-10" d="M537,256.86a1.29,1.29,0,0,0-.42-.26,1.32,1.32,0,0,0-.49-.06,1.25,1.25,0,0,0-.45.18,1,1,0,0,0-.34.35,2.34,2.34,0,0,0-.45,1.16l0,.32c0,.24.38.35.42.06l0-.35a2.23,2.23,0,0,1,.35-1,1,1,0,0,1,.22-.24.81.81,0,0,1,.3-.13.86.86,0,0,1,.61.24l.07,0a.21.21,0,0,0,.08,0l.07,0a.15.15,0,0,0,.06-.05.16.16,0,0,0,0-.07.19.19,0,0,0,0-.08s0-.05,0-.07l-.05-.06Z" />
  <path class="cls-1" d="M519.16,257.47a2.76,2.76,0,0,0,.19,1.27,2.61,2.61,0,0,0,.74,1.05,2.85,2.85,0,0,0,1.13.62,2.83,2.83,0,0,0,2.45-.49,2.94,2.94,0,0,0,.82-1,3,3,0,0,0,.28-1.25,2.82,2.82,0,0,0-.31-1.25,2.28,2.28,0,0,1,1.39,0,2.83,2.83,0,0,0-.07,2.12,2.83,2.83,0,0,0,5.16.32,2.83,2.83,0,0,0-4.93-2.76,2.6,2.6,0,0,0-1.74,0,2.72,2.72,0,0,0-1.34-1,2.82,2.82,0,0,0-1.7-.08,2.86,2.86,0,0,0-1.43.92,2.73,2.73,0,0,0-.63,1.57Zm6.81-.09a2.49,2.49,0,0,1,.52-1.33,2.47,2.47,0,0,1,2.59-.84,2.52,2.52,0,0,1,1.2.77,2.45,2.45,0,0,1-2,4,2.45,2.45,0,0,1-2.26-2.64Zm-6.46.12a2.47,2.47,0,0,1,1.69-2.14,2.37,2.37,0,0,1,1.42,0,2.46,2.46,0,0,1,1.2.76,2.39,2.39,0,0,1,.57,1.31,2.42,2.42,0,0,1-.25,1.4,2.41,2.41,0,0,1-2.37,1.33,2.27,2.27,0,0,1-.92-.26,2.59,2.59,0,0,1-.76-.59,2.49,2.49,0,0,1-.47-.84,2.56,2.56,0,0,1-.11-.95Z" />
  <path class="cls-3" d="M534.81,260.64a.61.61,0,0,0,.61-.62.61.61,0,1,0-1.22,0A.61.61,0,0,0,534.81,260.64Z" />
  <path class="cls-5" d="M534.56,260.52a.57.57,0,0,0,.26,0,.59.59,0,0,0,.22-.12.68.68,0,0,0,.17-.21.72.72,0,0,0,.07-.25.76.76,0,0,0-.08-.36.69.69,0,0,1,.21.32.62.62,0,0,1,0,.38.57.57,0,0,1-.25.3.6.6,0,0,1-.37.09.64.64,0,0,1-.34-.14Z" />
  <path class="cls-22" d="M522.67,253.46a9.37,9.37,0,0,0,5.68-1.51,6.39,6.39,0,0,0,1.75-1.65.19.19,0,0,0-.06-.25.22.22,0,0,0-.14,0,.21.21,0,0,0-.11.08s-2.1,3.15-7.11,3h-.07l-.06,0s0,0,0,.06a.14.14,0,0,0,0,.07.18.18,0,0,0,0,.12.14.14,0,0,0,.12.06Z" />
  <path class="cls-2" d="M534.49,261.07h-1l1,2.11Z" />
  <path class="cls-2" d="M523.93,265.77a7.2,7.2,0,0,0,3.33.92H528l.29,0h.07a3.06,3.06,0,0,0,.45-.06l.18,0a7,7,0,0,0,2.29-.83h.12a.18.18,0,0,1,.12.21.14.14,0,0,1-.06.11,7.58,7.58,0,0,1-3,1,5.65,5.65,0,0,1-3.4,1.16,7,7,0,0,1-1.45-.16Z" />
  <path class="cls-1" d="M524.38,262.11l-.06,0a.12.12,0,0,0-.05.05s0,0,0,.06a.13.13,0,0,0,0,.06,2,2,0,0,0,1.8,1.14,2,2,0,0,0,1.07-.31,2,2,0,0,0,.74-.83.13.13,0,0,0,0-.06.08.08,0,0,0,0-.06.1.1,0,0,0,0-.05l-.06,0Z" />
  <path class="cls-5" d="M487.78,296.31l1.38,0L487.89,303l-1.32-.26Z" />
  <path class="cls-2" d="M511.57,297.14c-2.31-2.69-2.68-5.35-1.81-8.67l.93-3.45.79-3.72v-.07a.13.13,0,0,0-.05-.09.16.16,0,0,0-.08-.06.26.26,0,0,0-.15,0,.2.2,0,0,0-.08.12l-1,4.39-.47,1.49s-3.76,5.36-2.58,9.45c.44,1.49.69,2.47-.21,3.74l-1.66,2.43a4.94,4.94,0,0,1-3.7,1l-14.69-2.39-.26,1.36,13.62,2.7h-.07l1.46.27a6.4,6.4,0,0,0,5.72-1.83h0a5.69,5.69,0,0,0,.63-.75l3.95-5.54Z" />
  <path class="cls-29" d="M281.35,259.26c-.15,0-.21.18-.19.33a.27.27,0,0,0,.32.19l1.21-.25a1.18,1.18,0,0,0,.39-.19,1.3,1.3,0,0,0,.3-.32,1.25,1.25,0,0,0,.14-.41.93.93,0,0,0,0-.44,1.18,1.18,0,0,0-.27-.49,1.12,1.12,0,0,0-.47-.3,1.27,1.27,0,0,1-.56-.44,1.2,1.2,0,0,1-.23-.67c0-.14,0-.29,0-.43C281.3,253.33,281.35,259.26,281.35,259.26Z" />
  <g class="cls-20">
    <path class="cls-2" d="M283.52,258.17a1.2,1.2,0,0,0-.53-.7l0,.1a.94.94,0,0,1,0,.44,1.11,1.11,0,0,1-.14.41,1,1,0,0,1-.3.32,1,1,0,0,1-.39.19l-.86.18v.15c-.15,0-.21.18-.19.33a.27.27,0,0,0,.32.19l1.21-.25a1.44,1.44,0,0,0,.4-.18,1.18,1.18,0,0,0,.3-.33,1.12,1.12,0,0,0,.15-.41A1.29,1.29,0,0,0,283.52,258.17Z" />
  </g>
  <path class="cls-29" d="M263.44,455.38l-17.82.44,7.11-5.08a4.76,4.76,0,0,0,2-3.65l.25-5.57,9.69,0Z" />
  <path class="cls-2" d="M261.46,448.87v-.1a1.16,1.16,0,0,0-.24-.84,1.12,1.12,0,0,0-.75-.44l-5.68-.83.05-1.12h9.5l-.85,9.45-7.77-.86,2.56-1a5.09,5.09,0,0,0,3.18-4.25Z" />
  <path class="cls-8" d="M264.67,452.22v6.95a2,2,0,0,1-.59,1.44,2.24,2.24,0,0,1-.66.44,2.12,2.12,0,0,1-.78.15H239a.84.84,0,0,1-.6-.25.91.91,0,0,1-.26-.6h0a3.86,3.86,0,0,1,.74-2.25,3.79,3.79,0,0,1,1.9-1.4l5.33-1.76,6.75-5.24a1.85,1.85,0,0,1,2.36.05l3,2.56a1.67,1.67,0,0,0,.76.36,1.71,1.71,0,0,0,.84,0l3.79-1.18a.67.67,0,0,1,.37,0,.7.7,0,0,1,.34.15.65.65,0,0,1,.24.28.77.77,0,0,1,.09.36Z" />
  <path class="cls-29" d="M286.94,455.38l17.82.44-7.11-5.08a4.72,4.72,0,0,1-2-3.65l-.25-5.57-9.69,0Z" />
  <path class="cls-2" d="M288.92,448.87v-.1a1.16,1.16,0,0,1,.24-.84,1.12,1.12,0,0,1,.75-.44l5.68-.83,0-1.12H286l.86,9.45,7.77-.86-2.56-1a5.09,5.09,0,0,1-3.18-4.25Z" />
  <path class="cls-6" d="M296.15,334.67V445.55h-10.4l-9.06-90.4a1.13,1.13,0,0,0-.37-.75,1.11,1.11,0,0,0-.78-.29h0a1.14,1.14,0,0,0-.77.3,1.16,1.16,0,0,0-.36.74l-9.63,90.4H254.37L258,335.3l38.18-.64Z" />
  <path class="cls-3" d="M296.43,445.55H285.34l-.22-2.28H296.4Z" />
  <path class="cls-6" d="M296.43,445.55H285.34l-.22-2.28H296.4Z" />
  <path class="cls-11" d="M296.43,445.55h-4.61l-.11-2.31,4.69,0Z" />
  <path class="cls-8" d="M285.71,452.22v6.95a2,2,0,0,0,.59,1.44,2.12,2.12,0,0,0,.66.44,2.08,2.08,0,0,0,.78.15h23.61a.84.84,0,0,0,.6-.25.86.86,0,0,0,.25-.6h0a3.86,3.86,0,0,0-2.63-3.65l-5.33-1.76-6.75-5.24a1.84,1.84,0,0,0-1.19-.4,1.88,1.88,0,0,0-1.18.45l-3,2.56a1.67,1.67,0,0,1-.76.36,1.71,1.71,0,0,1-.84,0l-3.79-1.18a.78.78,0,0,0-.37,0,.73.73,0,0,0-.35.15.81.81,0,0,0-.24.28.9.9,0,0,0-.08.36Z" />
  <path class="cls-11" d="M258.74,444.31l10.11-85.37a5.46,5.46,0,0,1,5.41-4.79h1.28a1.1,1.1,0,0,0-.77.3,1.14,1.14,0,0,0-.36.74l-9.58,89.91Z" />
  <path class="cls-2" d="M265.05,445.55h-6.51l.3-2.28h6.43Z" />
  <path class="cls-6" d="M296.17,335.48V443.22l-4.47,0-1-85a6.2,6.2,0,0,0-5.57-6.1l-27.65-2.83.11-1.43,33-2.37-.12-10Z" />
  <path class="cls-29" d="M281.55,251.2l1.08,12.52a3.81,3.81,0,0,1-.66,2.47,3.73,3.73,0,0,1-2.07,1.5l-.79.23.66,5.74-5.58-.74-6.41.5.71-15.24,7.12-6.82Z" />
  <path class="cls-22" d="M282.07,247.48c.44,1.92,1.45,3.05-.25,4l-.73.42a2.27,2.27,0,0,0-.83.8,2.33,2.33,0,0,0-.34,1.11h0a2.43,2.43,0,0,1-1.85,2.43.35.35,0,0,0-.17.15.28.28,0,0,0,0,.22l.09.42.31,1.59a.7.7,0,0,1-.53.79h0a.76.76,0,0,1-.49-.07.72.72,0,0,1-.31-.38l-.47-1.08-2,1.8-.87,5.78a2.53,2.53,0,0,1-2.48,2.14h-3.08L266,264.47c-2.18-3.29-3.72-6.3-3.72-10,0,0,3.19-1.84,4.32-2.31l-.16-1.73c-.17-1.79-.35-1.15,1.36-1.73l3.33-1.12a16.32,16.32,0,0,1,9.84-.53C282.58,247.43,282.07,247.48,282.07,247.48Z" />
  <path class="cls-29" d="M343.93,272.31s1.09.77-.45,2.74-7.07,4.24-7.07,4.24l.93-7.28Z" />
  <path class="cls-29" d="M332.14,274l.89-2.31a8.93,8.93,0,0,1,1.7-2.74l2.14-2.35a.42.42,0,0,1,.3-.2.47.47,0,0,1,.35.06h0a1.53,1.53,0,0,1,.59,1.81l-1.33,2.05a.21.21,0,0,0,0,.17.29.29,0,0,0,.09.15h0a.3.3,0,0,0,.15.05.3.3,0,0,0,.16-.05l7.22-6.5a.61.61,0,0,1,.24-.15.67.67,0,0,1,.28,0,.61.61,0,0,1,.27.08.62.62,0,0,1,.22.17.75.75,0,0,1,.17.47.73.73,0,0,1-.19.47l-3.05,3.28s1.73-.13,1.11,1.74c0,0,1.47,1.13-.07,3.1s-6.94,6.07-6.94,6.07l-4.35,6.29-4.61-4Z" />
  <path class="cls-10" d="M341.06,272.43a.16.16,0,0,1-.09,0,.24.24,0,0,1-.06-.08.19.19,0,0,1,0-.18l2.36-2.12.05,0,.07,0,.06,0,.05,0a.17.17,0,0,1,0,.24l-2.36,2.12-.06,0Z" />
  <path class="cls-10" d="M341.51,274.57h-.06l-.06,0,0,0a.19.19,0,0,1,0-.07.14.14,0,0,1,0-.06l0-.06,2.37-2.12a.2.2,0,0,1,.11,0,.24.24,0,0,1,.11.06.17.17,0,0,1,0,.22l-2.37,2.12a.12.12,0,0,1-.1,0Z" />
  <path class="cls-10" d="M340,270.72l-.09,0a.16.16,0,0,1-.06-.08.14.14,0,0,1,0-.09.13.13,0,0,1,.05-.09l2.36-2.12.06,0,.07,0,.06,0,.06,0s0,0,0,.06a.15.15,0,0,1,0,.07.14.14,0,0,1,0,.06l-.05.05-2.36,2.13A.15.15,0,0,1,340,270.72Z" />
  <path class="cls-11" d="M343.48,275.06c-1.53,2-7.07,4.24-7.07,4.24L334,282.82l-.93-.76,2.49-3.68a1.25,1.25,0,0,1,.64-.49l2.3-.79a12.09,12.09,0,0,0,5.79-3.61S344.31,273.89,343.48,275.06Z" />
  <path class="cls-5" d="M267.68,270.82h11.67a.65.65,0,0,1,.36.1.7.7,0,0,1,.28.26l1.12,2.46,11.16,1.44a11,11,0,0,1,6.64,3.41l15,16.14L329.31,278l5.48,4.45-18.2,26.08a5,5,0,0,1-1.55,1.43,4.91,4.91,0,0,1-2,.68,5,5,0,0,1-2.1-.21,4.86,4.86,0,0,1-1.83-1.05l-13-11.68,2.64,50.25H254.48l2-27.82h-10a4.57,4.57,0,0,1-2-.44,4.62,4.62,0,0,1-1.58-1.25,4.57,4.57,0,0,1-.91-3.83l7.06-32.38a8.15,8.15,0,0,1,6.42-6.26l10.64-2.05.87-2.65a.9.9,0,0,1,.28-.3A.79.79,0,0,1,267.68,270.82Z" />
  <path class="cls-11" d="M333.51,281.37l-19.24,25c-1,1.41-2.87,3.38-5.19,2.95l0,0a4.82,4.82,0,0,0,1.82,1.05,5,5,0,0,0,2.1.21,5,5,0,0,0,2-.67,5.16,5.16,0,0,0,1.54-1.44l18.2-26.07Z" />
  <path class="cls-22" d="M289.39,347.69H254.48v.43h34.91Z" />
  <path class="cls-22" d="M254.68,297.3l-.42,0,2,22.75.42,0Z" />
  <path class="cls-11" d="M252.38,311.58l2.1-14.26,1.41,15.75h-2.22a1.41,1.41,0,0,1-.54-.11,1.37,1.37,0,0,1-.45-.34,1.25,1.25,0,0,1-.26-.48,1.32,1.32,0,0,1,0-.56Z" />
  <path class="cls-22" d="M281.06,244.64a4,4,0,0,0-3.76.36,1.29,1.29,0,0,1-1.77-.08,4.78,4.78,0,0,0-4.64-1.34,5.17,5.17,0,0,0-4,3.87,1.33,1.33,0,0,1-.28.6,1.35,1.35,0,0,1-.52.4,6.79,6.79,0,0,0-3.84,5.61c-.15,5.43,10,3.93,10,3.93a2.16,2.16,0,0,1,.47-2.39,2.08,2.08,0,0,1,.72-.45l8.34-3.65C284.52,250.3,284.09,245.77,281.06,244.64Z" />
  <path class="cls-2" d="M274.33,259.32l.15.39a15.22,15.22,0,0,0,1.65.39l-1.94.95Z" />
  <path class="cls-29" d="M276.58,258.24c.31,1.12.68,1.92-.8,1.94-2.82,0-3.38-3.71-1.82-4.56a1.37,1.37,0,0,1,.55-.21,1.41,1.41,0,0,1,1.09.33,1.33,1.33,0,0,1,.33.48Z" />
  <path class="cls-10" d="M275.75,257.82a2.31,2.31,0,0,0-.36-1,1.25,1.25,0,0,0-.68-.44,1.12,1.12,0,0,0-.41,0,1.07,1.07,0,0,0-.36.21.24.24,0,0,0-.06.15.25.25,0,0,0,0,.15c0,.1.15.09.25,0a.61.61,0,0,1,.24-.15.48.48,0,0,1,.29,0c.15,0,.25.13.42.32a1.84,1.84,0,0,1,.32.81l.07.34c0,.1.11.15.21.14s.14-.11.13-.21l-.07-.34" />
  <path class="cls-22" d="M283.19,257.65a.31.31,0,0,1-.19-.06.33.33,0,0,1-.1-.17l-1-4.29a.4.4,0,0,1,0-.11.27.27,0,0,1,.05-.11.2.2,0,0,1,.08-.08.21.21,0,0,1,.1,0h.12l.1.05a.34.34,0,0,1,.09.08.42.42,0,0,1,0,.1l1,4.29a.35.35,0,0,1,0,.22.36.36,0,0,1-.19.13Z" />
  <path class="cls-22" d="M282.59,254.68,276,256.15l.13.58,6.63-1.47Z" />
  <path class="cls-3" d="M265.05,445.55H254l.16-2.28h11.12Z" />
  <path class="cls-6" d="M265.05,445.55H254l.16-2.28h11.12Z" />
  <path class="cls-11" d="M265.05,445.55h-6.48l.27-2.28h6.43Z" />
  <path class="cls-22" d="M281.09,273.42H269.21v.43h11.88Z" />
  <path class="cls-11" d="M296.15,297.65l-.57-.5a2.35,2.35,0,0,0-1.17-.55,2.27,2.27,0,0,0-1.29.16,2.32,2.32,0,0,0-1,.82,2.49,2.49,0,0,0-.4,1.24L293,347.9h5.83Z" />
  <path class="cls-11" d="M313.94,294.63l-.58.64a.7.7,0,0,1-.24.17.7.7,0,0,1-.29,0,.57.57,0,0,1-.28-.08.7.7,0,0,1-.21-.21l-5.78-8.48Z" />
  <path class="cls-2" d="M279.11,267.92l-2.44-.05a.93.93,0,0,0-.49.11.88.88,0,0,0-.37.32,1,1,0,0,0-.18.46,1.14,1.14,0,0,0,.05.49l.67,1.56,3.09,0Z" />
  <path class="cls-8" d="M275.66,195.23h-.8a.31.31,0,0,1-.22-.09.32.32,0,0,1-.09-.23.31.31,0,0,1,.09-.22.32.32,0,0,1,.22-.1h.8a.33.33,0,0,1,.23.1.31.31,0,0,1,.09.22.31.31,0,0,1-.32.32Z" />
  <path class="cls-5" d="M299.7,195.23h-1.5a.31.31,0,0,1-.32-.32.31.31,0,0,1,.09-.22.33.33,0,0,1,.23-.1h1.5a.34.34,0,0,1,.32.32.33.33,0,0,1-.1.23A.31.31,0,0,1,299.7,195.23Zm-3,0h-1.5a.31.31,0,0,1-.32-.32.31.31,0,0,1,.09-.22.33.33,0,0,1,.23-.1h1.5a.33.33,0,0,1,.23.1.31.31,0,0,1,.09.22.31.31,0,0,1-.32.32Zm-3,0h-1.51a.31.31,0,0,1-.22-.09.32.32,0,0,1-.09-.23.31.31,0,0,1,.09-.22.32.32,0,0,1,.22-.1h1.51a.34.34,0,0,1,.32.32.33.33,0,0,1-.1.23A.31.31,0,0,1,293.69,195.23Zm-3,0h-1.5a.33.33,0,0,1-.23-.09.32.32,0,0,1-.09-.23.31.31,0,0,1,.09-.22.34.34,0,0,1,.23-.1h1.5a.33.33,0,0,1,.23.1.31.31,0,0,1,.09.22.31.31,0,0,1-.32.32Zm-3,0h-1.51a.31.31,0,0,1-.22-.09.33.33,0,0,1-.1-.23.34.34,0,0,1,.32-.32h1.51a.34.34,0,0,1,.32.32.33.33,0,0,1-.1.23A.31.31,0,0,1,287.67,195.23Zm-3,0h-1.49a.31.31,0,0,1-.32-.32.31.31,0,0,1,.09-.22.33.33,0,0,1,.23-.1h1.5a.33.33,0,0,1,.23.1.31.31,0,0,1,.09.22.31.31,0,0,1-.32.32Zm-3,0h-1.5a.31.31,0,0,1-.22-.09.33.33,0,0,1-.1-.23.34.34,0,0,1,.32-.32h1.5a.33.33,0,0,1,.23.1.31.31,0,0,1,.09.22.31.31,0,0,1-.32.32Zm-3,0h-1.51a.31.31,0,0,1-.22-.09.32.32,0,0,1-.09-.23.31.31,0,0,1,.09-.22.32.32,0,0,1,.22-.1h1.51a.34.34,0,0,1,.32.32.33.33,0,0,1-.1.23A.31.31,0,0,1,278.65,195.23Z" />
  <path class="cls-8" d="M302,195.23h-.79a.31.31,0,0,1-.32-.32.31.31,0,0,1,.09-.22.33.33,0,0,1,.23-.1h.8a.34.34,0,0,1,.32.32.33.33,0,0,1-.1.23.31.31,0,0,1-.22.09Z" />
  <path class="cls-5" d="M302,197a2,2,0,1,0-2-2A2,2,0,0,0,302,197Z" />
  <path class="cls-6" d="M429.4,134.07H413.57a9.08,9.08,0,0,0-9.08,9.08V159a9.08,9.08,0,0,0,9.08,9.08H429.4a9.08,9.08,0,0,0,9.08-9.08V143.15A9.08,9.08,0,0,0,429.4,134.07Z" />
  <path class="cls-8" d="M406.38,151.39h-.8a.32.32,0,0,1-.23-.09.34.34,0,0,1,0-.46.32.32,0,0,1,.23-.09h.8a.31.31,0,0,1,.22.09.31.31,0,0,1,0,.46A.31.31,0,0,1,406.38,151.39Z" />
  <path class="cls-5" d="M338.67,178.54a.31.31,0,0,1-.32-.32v-1.57a.31.31,0,0,1,.32-.32.31.31,0,0,1,.22.09.33.33,0,0,1,.1.23v1.57a.33.33,0,0,1-.1.23.31.31,0,0,1-.22.09Zm0-3.15a.31.31,0,0,1-.32-.32V173.5a.31.31,0,0,1,.32-.32.31.31,0,0,1,.22.09.33.33,0,0,1,.1.23v1.57a.33.33,0,0,1-.1.23A.31.31,0,0,1,338.67,175.39Zm0-3.14a.33.33,0,0,1-.23-.1.31.31,0,0,1-.09-.22v-1.58a.31.31,0,0,1,.09-.22.33.33,0,0,1,.23-.1.34.34,0,0,1,.32.32v1.57a.33.33,0,0,1-.1.23.31.31,0,0,1-.22.09Zm0-3.15a.33.33,0,0,1-.23-.1.31.31,0,0,1-.09-.22V167.2a.31.31,0,0,1,.09-.22.32.32,0,0,1,.23-.09.31.31,0,0,1,.22.09.32.32,0,0,1,.1.22v1.58a.34.34,0,0,1-.32.32Zm0-3.15a.31.31,0,0,1-.32-.32v-1.57a.31.31,0,0,1,.32-.32.31.31,0,0,1,.22.09.33.33,0,0,1,.1.23v1.57a.33.33,0,0,1-.1.23.31.31,0,0,1-.22.09Zm0-3.15a.32.32,0,0,1-.23-.09.31.31,0,0,1-.09-.22v-1.58a.31.31,0,0,1,.09-.22.33.33,0,0,1,.23-.1.34.34,0,0,1,.32.32v1.58a.32.32,0,0,1-.1.22.31.31,0,0,1-.22.09Zm0-3.14a.33.33,0,0,1-.23-.1.31.31,0,0,1-.09-.22v-1.57a.31.31,0,0,1,.32-.32.31.31,0,0,1,.22.09.33.33,0,0,1,.1.23v1.57a.34.34,0,0,1-.32.32Zm.15-3.14h-.07l-.12-.05a.24.24,0,0,1-.08-.09.22.22,0,0,1-.05-.11.28.28,0,0,1,0-.13,6.5,6.5,0,0,1,.55-1.55.21.21,0,0,1,.07-.11.26.26,0,0,1,.11-.07.19.19,0,0,1,.13,0l.12,0a.28.28,0,0,1,.11.08.39.39,0,0,1,.06.11.57.57,0,0,1,0,.13.5.5,0,0,1,0,.13,5.9,5.9,0,0,0-.49,1.41.34.34,0,0,1-.11.17.31.31,0,0,1-.2.07Zm1.37-2.79a.28.28,0,0,1-.2-.08.25.25,0,0,1-.08-.1.21.21,0,0,1,0-.12.49.49,0,0,1,0-.12l.06-.11a7.06,7.06,0,0,1,1.2-1.12l.12-.06a.24.24,0,0,1,.12,0,.28.28,0,0,1,.12,0,.34.34,0,0,1,.09.08.26.26,0,0,1,.05.12.25.25,0,0,1,0,.12.56.56,0,0,1,0,.12.38.38,0,0,1-.09.09,6.59,6.59,0,0,0-1.09,1,.28.28,0,0,1-.11.08.28.28,0,0,1-.13,0Zm2.51-1.85a.37.37,0,0,1-.2-.07.4.4,0,0,1-.11-.19.39.39,0,0,1,0-.21.36.36,0,0,1,.16-.14,6.78,6.78,0,0,1,1.6-.44.24.24,0,0,1,.12,0l.12.06a.24.24,0,0,1,.08.09.4.4,0,0,1,0,.25.36.36,0,0,1-.15.19.31.31,0,0,1-.12.05,6,6,0,0,0-1.44.39.2.2,0,0,1-.11,0Zm61.31-.49h-1.58a.32.32,0,1,1,0-.64H404a.32.32,0,0,1,.23.09.34.34,0,0,1,0,.46.32.32,0,0,1-.23.09Zm-3.14,0h-1.58a.31.31,0,0,1-.22-.09.31.31,0,0,1,0-.46.31.31,0,0,1,.22-.09h1.58a.31.31,0,0,1,.22.09.34.34,0,0,1,0,.46A.31.31,0,0,1,400.87,151.39Zm-3.15,0h-1.58a.31.31,0,0,1-.22-.09.31.31,0,0,1,0-.46.31.31,0,0,1,.22-.09h1.58a.31.31,0,0,1,.22.09.31.31,0,0,1,0,.46A.31.31,0,0,1,397.72,151.39Zm-3.15,0H393a.32.32,0,0,1-.23-.09.34.34,0,0,1,0-.46.32.32,0,0,1,.23-.09h1.57a.31.31,0,0,1,.22.09.31.31,0,0,1,0,.46A.31.31,0,0,1,394.57,151.39Zm-3.15,0h-1.57a.32.32,0,0,1-.23-.09.34.34,0,0,1,0-.46.32.32,0,0,1,.23-.09h1.57a.32.32,0,0,1,.23.09.34.34,0,0,1,0,.46A.32.32,0,0,1,391.42,151.39Zm-3.14,0H386.7a.31.31,0,0,1-.22-.09.31.31,0,0,1,0-.46.31.31,0,0,1,.22-.09h1.58a.31.31,0,0,1,.22.09.34.34,0,0,1,0,.46A.31.31,0,0,1,388.28,151.39Zm-3.15,0h-1.57a.32.32,0,0,1-.23-.09.34.34,0,0,1,0-.46.32.32,0,0,1,.23-.09h1.57a.32.32,0,1,1,0,.64Zm-3.15,0H380.4a.32.32,0,0,1-.23-.09.34.34,0,0,1,0-.46.32.32,0,0,1,.23-.09H382a.32.32,0,0,1,.23.09.34.34,0,0,1,0,.46.32.32,0,0,1-.23.09Zm-3.14,0h-1.58a.31.31,0,0,1-.22-.09.31.31,0,0,1,0-.46.31.31,0,0,1,.22-.09h1.58a.31.31,0,0,1,.22.09.31.31,0,0,1,0,.46A.31.31,0,0,1,378.84,151.39Zm-3.15,0h-1.58a.32.32,0,0,1-.23-.09.34.34,0,0,1,0-.46.32.32,0,0,1,.23-.09h1.57a.32.32,0,0,1,.23.09.34.34,0,0,1,0,.46.32.32,0,0,1-.23.09Zm-3.15,0H371a.32.32,0,0,1-.23-.09.34.34,0,0,1,0-.46.32.32,0,0,1,.23-.09h1.57a.35.35,0,0,1,.23.09.34.34,0,0,1,0,.46A.35.35,0,0,1,372.54,151.39Zm-3.15,0h-1.57a.32.32,0,0,1-.23-.09.34.34,0,0,1,0-.46.32.32,0,0,1,.23-.09h1.57a.32.32,0,0,1,.23.09.34.34,0,0,1,0,.46A.32.32,0,0,1,369.39,151.39Zm-3.14,0h-1.58a.31.31,0,0,1-.22-.09.34.34,0,0,1,0-.46.31.31,0,0,1,.22-.09h1.58a.31.31,0,0,1,.22.09.34.34,0,0,1,0,.46A.31.31,0,0,1,366.25,151.39Zm-3.15,0h-1.57a.32.32,0,0,1-.23-.09.34.34,0,0,1,0-.46.32.32,0,0,1,.23-.09h1.57a.32.32,0,1,1,0,.64Zm-3.15,0h-1.59a.31.31,0,0,1-.22-.09.34.34,0,0,1,0-.46.31.31,0,0,1,.22-.09H360a.32.32,0,0,1,.23.09.34.34,0,0,1,0,.46.32.32,0,0,1-.23.09Zm-3.14,0h-1.58a.31.31,0,0,1-.22-.09.31.31,0,0,1,0-.46.31.31,0,0,1,.22-.09h1.58a.31.31,0,0,1,.22.09.31.31,0,0,1,0,.46A.31.31,0,0,1,356.81,151.39Zm-3.15,0h-1.58a.31.31,0,0,1-.22-.09.31.31,0,0,1,0-.46.31.31,0,0,1,.22-.09h1.58a.31.31,0,0,1,.22.09.31.31,0,0,1,0,.46A.31.31,0,0,1,353.66,151.39Zm-3.15,0h-1.57a.32.32,0,0,1-.23-.09.34.34,0,0,1,0-.46.32.32,0,0,1,.23-.09h1.57a.32.32,0,1,1,0,.64Zm-3.15,0h-1.58a.31.31,0,0,1-.22-.09.31.31,0,0,1,0-.46.31.31,0,0,1,.22-.09h1.58a.31.31,0,0,1,.22.09.31.31,0,0,1,0,.46.31.31,0,0,1-.22.09Z" />
  <path class="cls-8" d="M338.67,180.92a.32.32,0,0,1-.23-.09.33.33,0,0,1-.09-.23v-.8a.31.31,0,0,1,.09-.22.33.33,0,0,1,.23-.1.34.34,0,0,1,.32.32v.8a.34.34,0,0,1-.1.23A.31.31,0,0,1,338.67,180.92Z" />
  <path class="cls-5" d="M338.67,182.08a2,2,0,1,0-2-2A2,2,0,0,0,338.67,182.08Z" />
  <path class="cls-4" d="M420.4,158.79v-1.15a.38.38,0,0,0-.34-.38,8.19,8.19,0,0,1-2.75-.69.39.39,0,0,1-.18-.18.39.39,0,0,1,0-.26l.4-1.56a.35.35,0,0,1,.07-.15.41.41,0,0,1,.13-.1.35.35,0,0,1,.17,0,.32.32,0,0,1,.16,0,7.14,7.14,0,0,0,2.88.66c1.13,0,1.91-.45,1.91-1.23s-.64-1.23-2.11-1.72c-2.13-.72-3.57-1.72-3.57-3.63a3.58,3.58,0,0,1,3.07-3.48.35.35,0,0,0,.2-.14.38.38,0,0,0,.08-.23v-1.2a.37.37,0,0,1,.12-.27.37.37,0,0,1,.27-.11h1.18a.39.39,0,0,1,.27.11.4.4,0,0,1,.11.27v1a.36.36,0,0,0,.11.26.33.33,0,0,0,.25.12,7.25,7.25,0,0,1,2.21.5.35.35,0,0,1,.2.18.36.36,0,0,1,0,.27l-.39,1.49a.51.51,0,0,1-.07.15l-.13.1a.42.42,0,0,1-.16,0l-.16,0a6,6,0,0,0-2.44-.51c-1.28,0-1.7.57-1.7,1.12s.69,1.08,2.38,1.7c2.36.83,3.3,1.92,3.3,3.73a3.69,3.69,0,0,1-3.23,3.59.41.41,0,0,0-.21.14.41.41,0,0,0-.08.24v1.34a.38.38,0,0,1-.38.38h-1.19a.36.36,0,0,1-.26-.11.36.36,0,0,1-.12-.27Z" />
  <path class="cls-8" d="M366.67,259.73a.31.31,0,0,1-.32-.32v-.8a.31.31,0,0,1,.09-.22.33.33,0,0,1,.23-.1.34.34,0,0,1,.32.32v.8a.33.33,0,0,1-.1.23A.31.31,0,0,1,366.67,259.73Z" />
  <path class="cls-5" d="M414.31,347.54a.31.31,0,0,1-.32-.32v-1.59a.31.31,0,0,1,.32-.32.29.29,0,0,1,.22.09.33.33,0,0,1,.1.23v1.59a.33.33,0,0,1-.1.23A.29.29,0,0,1,414.31,347.54Zm0-3.21a.33.33,0,0,1-.23-.1A.31.31,0,0,1,414,344v-1.6a.31.31,0,0,1,.09-.22.33.33,0,0,1,.23-.1.3.3,0,0,1,.22.1.32.32,0,0,1,.1.22V344a.3.3,0,0,1,0,.13.26.26,0,0,1-.07.11.23.23,0,0,1-.1.07.31.31,0,0,1-.13,0Zm0-3.22a.31.31,0,0,1-.32-.32V339.2a.31.31,0,0,1,.32-.32.29.29,0,0,1,.22.09.33.33,0,0,1,.1.23v1.59a.51.51,0,0,1,0,.13.3.3,0,0,1-.18.18l-.12,0Zm0-3.21a.31.31,0,0,1-.32-.32V336a.31.31,0,0,1,.09-.22.32.32,0,0,1,.23-.09.29.29,0,0,1,.22.09.32.32,0,0,1,.1.22v1.6a.59.59,0,0,1,0,.13l-.07.11a.41.41,0,0,1-.11.07l-.12,0Zm0-3.22a.32.32,0,0,1-.23-.09.31.31,0,0,1-.09-.22v-1.6a.31.31,0,0,1,.32-.32.29.29,0,0,1,.22.09.33.33,0,0,1,.1.23v1.6a.5.5,0,0,1,0,.12.41.41,0,0,1-.07.11.26.26,0,0,1-.11.07l-.12,0Zm0-3.21a.31.31,0,0,1-.32-.32v-1.59a.31.31,0,0,1,.32-.32.29.29,0,0,1,.22.09.33.33,0,0,1,.1.23v1.59a.51.51,0,0,1,0,.13.3.3,0,0,1-.18.18.27.27,0,0,1-.12,0Zm0-3.21a.33.33,0,0,1-.23-.1.31.31,0,0,1-.09-.22v-1.6a.31.31,0,0,1,.09-.22.33.33,0,0,1,.23-.1.3.3,0,0,1,.22.1.32.32,0,0,1,.1.22v1.6a.5.5,0,0,1,0,.12.41.41,0,0,1-.07.11.26.26,0,0,1-.11.07l-.12,0Zm0-3.22a.32.32,0,0,1-.23-.09.31.31,0,0,1-.09-.22v-1.6a.31.31,0,0,1,.32-.32.29.29,0,0,1,.22.09.33.33,0,0,1,.1.23v1.6a.5.5,0,0,1,0,.12.41.41,0,0,1-.07.11.26.26,0,0,1-.11.07.27.27,0,0,1-.12,0Zm0-3.21a.32.32,0,0,1-.23-.09.33.33,0,0,1-.09-.23v-1.6a.31.31,0,0,1,.09-.22.33.33,0,0,1,.23-.1.3.3,0,0,1,.22.1.32.32,0,0,1,.1.22v1.6a.59.59,0,0,1,0,.13.36.36,0,0,1-.07.1.28.28,0,0,1-.11.08l-.12,0Zm0-3.22a.31.31,0,0,1-.32-.32V316.7a.31.31,0,0,1,.32-.32.29.29,0,0,1,.22.09.33.33,0,0,1,.1.23v1.59a.51.51,0,0,1,0,.13.3.3,0,0,1-.18.18l-.12,0Zm0-3.21a.31.31,0,0,1-.32-.32v-1.59a.31.31,0,0,1,.32-.32.29.29,0,0,1,.22.09.33.33,0,0,1,.1.23v1.59a.51.51,0,0,1,0,.13.3.3,0,0,1-.18.18.25.25,0,0,1-.12,0Zm0-3.21a.33.33,0,0,1-.23-.1.31.31,0,0,1-.09-.22v-1.6a.33.33,0,0,1,.09-.23.32.32,0,0,1,.23-.09.29.29,0,0,1,.22.09.34.34,0,0,1,.1.23v1.6a.5.5,0,0,1,0,.12.41.41,0,0,1-.07.11.26.26,0,0,1-.11.07l-.12,0Zm0-3.22a.31.31,0,0,1-.32-.32v-1.59a.31.31,0,0,1,.32-.32.29.29,0,0,1,.22.09.33.33,0,0,1,.1.23v1.59a.51.51,0,0,1,0,.13.3.3,0,0,1-.18.18.27.27,0,0,1-.12,0Zm0-3.21a.33.33,0,0,1-.23-.1.31.31,0,0,1-.09-.22v-1.6a.31.31,0,0,1,.09-.22.33.33,0,0,1,.23-.1.3.3,0,0,1,.22.1.32.32,0,0,1,.1.22v1.6a.5.5,0,0,1,0,.12.3.3,0,0,1-.07.11l-.11.08-.12,0Zm0-3.22a.31.31,0,0,1-.32-.32v-1.59a.31.31,0,0,1,.32-.32.29.29,0,0,1,.22.09.33.33,0,0,1,.1.23v1.59a.51.51,0,0,1,0,.13.3.3,0,0,1-.18.18.27.27,0,0,1-.12,0Zm0-3.21A.31.31,0,0,1,414,299v-1.6a.31.31,0,0,1,.09-.22.32.32,0,0,1,.23-.09.29.29,0,0,1,.22.09.32.32,0,0,1,.1.22V299a.59.59,0,0,1,0,.13l-.07.11a.41.41,0,0,1-.11.07l-.12,0Zm0-3.22a.32.32,0,0,1-.23-.09.31.31,0,0,1-.09-.22v-1.6a.31.31,0,0,1,.32-.32.29.29,0,0,1,.22.09.33.33,0,0,1,.1.23v1.6a.5.5,0,0,1,0,.12.41.41,0,0,1-.07.11.25.25,0,0,1-.1.08.3.3,0,0,1-.13,0Zm0-3.21a.31.31,0,0,1-.32-.32V291a.31.31,0,0,1,.32-.32.29.29,0,0,1,.22.09.33.33,0,0,1,.1.23v1.59a.51.51,0,0,1,0,.13.3.3,0,0,1-.18.18.27.27,0,0,1-.12,0Zm0-3.21a.33.33,0,0,1-.23-.1.31.31,0,0,1-.09-.22v-1.6a.31.31,0,0,1,.09-.22.33.33,0,0,1,.23-.1.3.3,0,0,1,.22.1.32.32,0,0,1,.1.22v1.6a.5.5,0,0,1,0,.12.41.41,0,0,1-.07.11.26.26,0,0,1-.11.07l-.12,0Zm0-3.22a.32.32,0,0,1-.23-.09.31.31,0,0,1-.09-.22v-1.6a.31.31,0,0,1,.32-.32.29.29,0,0,1,.22.09.33.33,0,0,1,.1.23v1.6a.5.5,0,0,1,0,.12.41.41,0,0,1-.07.11.26.26,0,0,1-.11.07.27.27,0,0,1-.12,0Zm0-3.21a.32.32,0,0,1-.23-.09.33.33,0,0,1-.09-.23v-1.6a.31.31,0,0,1,.09-.22.33.33,0,0,1,.23-.1.3.3,0,0,1,.22.1.32.32,0,0,1,.1.22v1.6a.59.59,0,0,1,0,.13.36.36,0,0,1-.07.1.28.28,0,0,1-.11.08l-.12,0Zm0-3.22a.31.31,0,0,1-.32-.32v-1.59a.31.31,0,0,1,.32-.32.29.29,0,0,1,.22.09.33.33,0,0,1,.1.23v1.59a.51.51,0,0,1,0,.13.3.3,0,0,1-.18.18.27.27,0,0,1-.12,0Zm0-3.21a.31.31,0,0,1-.32-.32v-1.59a.31.31,0,0,1,.09-.22.28.28,0,0,1,.21-.1.27.27,0,0,1,.13,0,.26.26,0,0,1,.11.07.23.23,0,0,1,.07.1.31.31,0,0,1,0,.13v1.62a.37.37,0,0,1-.1.22.35.35,0,0,1-.22.08Zm-.37-3.16a.41.41,0,0,1-.18-.05.33.33,0,0,1-.12-.14,3.76,3.76,0,0,0-.84-1.21.41.41,0,0,1-.07-.11.43.43,0,0,1,0-.12.5.5,0,0,1,0-.12.26.26,0,0,1,.07-.1.33.33,0,0,1,.23-.1.32.32,0,0,1,.22.1,4.54,4.54,0,0,1,1,1.4.31.31,0,0,1,0,.25.29.29,0,0,1-.17.17.23.23,0,0,1-.14,0Zm-2.24-2.2-.12,0a3.82,3.82,0,0,0-1.45-.32.28.28,0,0,1-.22-.1.3.3,0,0,1-.1-.22.33.33,0,0,1,.1-.23.31.31,0,0,1,.22-.09,4.6,4.6,0,0,1,1.68.36.3.3,0,0,1,.17.18.33.33,0,0,1,0,.24.33.33,0,0,1-.11.15.28.28,0,0,1-.18.06Zm-3.16-.32h-1.6a.31.31,0,0,1-.32-.32.31.31,0,0,1,.09-.22.33.33,0,0,1,.23-.1h1.6a.34.34,0,0,1,.32.32.33.33,0,0,1-.1.23A.31.31,0,0,1,408.54,271.15Zm-3.22,0h-1.6a.31.31,0,0,1-.22-.09.33.33,0,0,1-.1-.23.34.34,0,0,1,.32-.32h1.6a.34.34,0,0,1,.23.1.31.31,0,0,1,.09.22.32.32,0,0,1-.09.23A.33.33,0,0,1,405.32,271.15Zm-3.21,0h-1.6a.31.31,0,0,1-.22-.09.33.33,0,0,1-.1-.23.34.34,0,0,1,.32-.32h1.6a.34.34,0,0,1,.32.32.33.33,0,0,1-.1.23A.31.31,0,0,1,402.11,271.15Zm-3.22,0H397.3a.31.31,0,0,1-.32-.32.31.31,0,0,1,.09-.22.33.33,0,0,1,.23-.1h1.59a.33.33,0,0,1,.23.1.31.31,0,0,1,.09.22.31.31,0,0,1-.32.32Zm-3.21,0h-1.6a.33.33,0,0,1-.23-.09.32.32,0,0,1-.09-.23.31.31,0,0,1,.09-.22.34.34,0,0,1,.23-.1h1.6a.34.34,0,0,1,.32.32.33.33,0,0,1-.1.23A.31.31,0,0,1,395.68,271.15Zm-3.22,0h-1.59a.31.31,0,0,1-.32-.32.31.31,0,0,1,.09-.22.33.33,0,0,1,.23-.1h1.59a.33.33,0,0,1,.23.1.31.31,0,0,1,.09.22.31.31,0,0,1-.32.32Zm-3.21,0h-1.6a.31.31,0,0,1-.22-.09.33.33,0,0,1-.1-.23.34.34,0,0,1,.32-.32h1.6a.34.34,0,0,1,.23.1.31.31,0,0,1,.09.22.32.32,0,0,1-.09.23A.33.33,0,0,1,389.25,271.15Zm-3.21,0h-1.6a.33.33,0,0,1-.23-.09.32.32,0,0,1-.09-.23.31.31,0,0,1,.09-.22.34.34,0,0,1,.23-.1H386a.34.34,0,0,1,.32.32.33.33,0,0,1-.1.23A.31.31,0,0,1,386,271.15Zm-3.22,0h-1.6a.31.31,0,0,1-.22-.09.32.32,0,0,1-.09-.23.31.31,0,0,1,.09-.22.32.32,0,0,1,.22-.1h1.6a.33.33,0,0,1,.23.1.31.31,0,0,1,.09.22.31.31,0,0,1-.32.32Zm-3.21,0H378a.31.31,0,0,1-.32-.32.31.31,0,0,1,.09-.22.33.33,0,0,1,.23-.1h1.6a.34.34,0,0,1,.32.32.33.33,0,0,1-.1.23A.31.31,0,0,1,379.61,271.15Zm-3.22,0H374.8a.31.31,0,0,1-.32-.32.31.31,0,0,1,.09-.22.33.33,0,0,1,.23-.1h1.59a.33.33,0,0,1,.23.1.31.31,0,0,1,.09.22.31.31,0,0,1-.32.32Zm-3.21,0h-1.6a.31.31,0,0,1-.22-.09.33.33,0,0,1-.1-.23.34.34,0,0,1,.32-.32h1.6a.34.34,0,0,1,.32.32.33.33,0,0,1-.1.23A.31.31,0,0,1,373.18,271.15ZM370,271h-.08a4.62,4.62,0,0,1-1.57-.7.33.33,0,0,1-.13-.21.34.34,0,0,1,.05-.24.33.33,0,0,1,.21-.13.34.34,0,0,1,.24.05,3.85,3.85,0,0,0,1.35.61.33.33,0,0,1,.21.11.36.36,0,0,1,.07.24.32.32,0,0,1-.12.22.39.39,0,0,1-.23.07Zm-2.59-1.79a.42.42,0,0,1-.15,0,.38.38,0,0,1-.11-.11,4.52,4.52,0,0,1-.67-1.58.28.28,0,0,1,0-.13.32.32,0,0,1,.13-.22l.12-.05h.13l.12.05a.43.43,0,0,1,.09.1.25.25,0,0,1,0,.12,3.92,3.92,0,0,0,.58,1.36.37.37,0,0,1,.05.11.28.28,0,0,1,0,.13.61.61,0,0,1-.05.12.24.24,0,0,1-.09.08.25.25,0,0,1-.19.05Zm-.73-3.08a.31.31,0,0,1-.32-.32v-1.59a.31.31,0,0,1,.32-.32.31.31,0,0,1,.22.09.33.33,0,0,1,.1.23v1.59a.33.33,0,0,1-.1.23A.31.31,0,0,1,366.67,266.17Zm0-3.21a.31.31,0,0,1-.32-.32V261a.31.31,0,0,1,.09-.22.32.32,0,0,1,.23-.09.31.31,0,0,1,.22.09.32.32,0,0,1,.1.22v1.6a.33.33,0,0,1-.1.23A.31.31,0,0,1,366.67,263Z" />
  <path class="cls-8" d="M414.31,350a.31.31,0,0,1-.32-.32v-.8a.31.31,0,0,1,.09-.22.33.33,0,0,1,.23-.1.34.34,0,0,1,.32.32v.8a.33.33,0,0,1-.1.23A.31.31,0,0,1,414.31,350Z" />
  <path class="cls-5" d="M366.67,260.66a2,2,0,1,0-2-2A2,2,0,0,0,366.67,260.66Z" />
  <path class="cls-6" d="M422.23,337.14H406.39a9.08,9.08,0,0,0-9.08,9.08v15.83a9.08,9.08,0,0,0,9.08,9.08h15.84a9.08,9.08,0,0,0,9.08-9.08V346.22A9.08,9.08,0,0,0,422.23,337.14Z" />
  <path class="cls-4" d="M413.8,361.85v-1.14a.35.35,0,0,0-.1-.26.38.38,0,0,0-.25-.13,8.42,8.42,0,0,1-2.74-.68.37.37,0,0,1-.18-.19.31.31,0,0,1,0-.25l.4-1.57a.51.51,0,0,1,.07-.15.41.41,0,0,1,.13-.1.53.53,0,0,1,.17,0,.32.32,0,0,1,.16,0,7,7,0,0,0,2.88.66c1.13,0,1.91-.44,1.91-1.23s-.64-1.22-2.11-1.72c-2.13-.72-3.57-1.71-3.57-3.63a3.59,3.59,0,0,1,3.07-3.48.34.34,0,0,0,.2-.13.35.35,0,0,0,.08-.24v-1.19a.34.34,0,0,1,.12-.27.36.36,0,0,1,.27-.12h1.18l.15,0a.34.34,0,0,1,.12.09.27.27,0,0,1,.09.12.77.77,0,0,1,0,.15v1a.41.41,0,0,0,.11.25.34.34,0,0,0,.25.13,7.07,7.07,0,0,1,2.22.49.4.4,0,0,1,.22.45l-.39,1.5a.39.39,0,0,1-.08.14.32.32,0,0,1-.13.1.42.42,0,0,1-.15,0,.41.41,0,0,1-.16,0,5.94,5.94,0,0,0-2.45-.5c-1.28,0-1.7.56-1.7,1.12s.69,1.07,2.38,1.7c2.36.83,3.3,1.91,3.3,3.72a3.71,3.71,0,0,1-3.22,3.6.45.45,0,0,0-.22.13.41.41,0,0,0-.08.24v1.34a.4.4,0,0,1,0,.15.25.25,0,0,1-.08.12.47.47,0,0,1-.12.09.4.4,0,0,1-.15,0h-1.19a.32.32,0,0,1-.14,0,.38.38,0,0,1-.13-.09.36.36,0,0,1-.08-.12.4.4,0,0,1,0-.15Z" />
  <path class="cls-2" d="M551.57,306.84l-1.28.25-5.2-13.25-.44-1.11c.41-1.89,1-4.37,1.28-5.86a.37.37,0,0,1,.12-.2.39.39,0,0,1,.21-.08.34.34,0,0,1,.22.07.3.3,0,0,1,.13.18l5.83,18.55a1.12,1.12,0,0,1,0,.48,1.15,1.15,0,0,1-.15.44,1.23,1.23,0,0,1-.33.35A1.16,1.16,0,0,1,551.57,306.84Z" />
  <path class="cls-6" d="M272.66,177.91H256.82a9.09,9.09,0,0,0-9.08,9.08v15.84a9.09,9.09,0,0,0,9.08,9.08h15.84a9.09,9.09,0,0,0,9.08-9.08V187A9.09,9.09,0,0,0,272.66,177.91Z" />
  <path class="cls-4" d="M263.66,202.63v-1.15a.4.4,0,0,0-.1-.26.37.37,0,0,0-.25-.12,8.31,8.31,0,0,1-2.74-.69.41.41,0,0,1-.19-.18.46.46,0,0,1,0-.26l.4-1.57a.29.29,0,0,1,.08-.14.35.35,0,0,1,.13-.11.45.45,0,0,1,.16,0,.47.47,0,0,1,.17,0,7,7,0,0,0,2.87.67c1.13,0,1.92-.45,1.92-1.24s-.64-1.22-2.12-1.71c-2.12-.72-3.57-1.72-3.57-3.64a3.59,3.59,0,0,1,3.07-3.47.41.41,0,0,0,.21-.14.41.41,0,0,0,.08-.24v-1.19a.38.38,0,0,1,.38-.38h1.18a.39.39,0,0,1,.27.11.36.36,0,0,1,.12.27v1a.37.37,0,0,0,.1.26.42.42,0,0,0,.25.12,7.07,7.07,0,0,1,2.22.49.4.4,0,0,1,.22.45l-.39,1.5a.39.39,0,0,1-.08.14.29.29,0,0,1-.12.1.47.47,0,0,1-.16,0,.45.45,0,0,1-.16,0,5.91,5.91,0,0,0-2.45-.5c-1.28,0-1.7.56-1.7,1.12s.69,1.07,2.38,1.7c2.36.83,3.31,1.91,3.31,3.72a3.72,3.72,0,0,1-3.23,3.6.39.39,0,0,0-.3.37v1.34a.39.39,0,0,1-.11.27.36.36,0,0,1-.27.12H264a.42.42,0,0,1-.15,0,.23.23,0,0,1-.12-.08.38.38,0,0,1-.09-.13.59.59,0,0,1,0-.14Z" />
</svg>