<svg enable-background="new 0 0 22 40" height="40" viewBox="0 0 22 40" width="22" xmlns="http://www.w3.org/2000/svg"><g fill="#fff"><path d="m11.2 28.8c-2.8 0-5-1.5-5-1.5l-3.4 1.1 1.1-3.3s-1.8-2.5-1.8-5.4c0-5 4.1-9.1 9.1-9.1s9.1 4.1 9.1 9.1-4.1 9.1-9.1 9.1zm0-19.9c-6 0-10.8 4.9-10.8 10.8 0 3 1.6 5.6 1.6 5.6l-2 5.8 5.9-1.9s2.2 1.3 5.2 1.3c6 0 10.8-4.9 10.8-10.8s-4.8-10.8-10.7-10.8z"/><path d="m7 15s.3-.2.4-.2h.9s.2 0 .3.3c.1.2.8 1.9.9 2.1.1.1.2.5 0 .7-.2.3-.7.8-.7.8s-.2.2 0 .4c.2.3.7 1.1 1.5 1.8.7.7 1.6 1.2 2.1 1.3s.6 0 .7-.3c.2-.2.7-.9.7-.9s.2-.3.6-.1 2.1 1 2.1 1 .2 0 .2.3c0 .2.2 1-.5 1.7-.6.7-2 1-2.7.8-.6-.2-2.8-.7-4.2-2s-2.5-2.7-3-3.7c-.4-1-.3-1.6-.3-1.8 0-.3.2-1.6 1-2.2"/></g></svg>