<?xml version="1.0" encoding="utf-8"?>
<svg id="Camada_1" data-name="Camada 1" xmlns="http://www.w3.org/2000/svg" viewBox="168.378 214.30083 496.71515 154.77278" width="496.71515" height="154.77278">
  <defs>
    <style>.cls-1{fill:#ebf0ff;}.cls-2{fill:#487cff;}.cls-3{fill:#036;}</style>
  </defs>
  <path class="cls-1" d="M420.56,264.27a17,17,0,0,0,0-17.17,14.89,14.89,0,0,0-6.68-5.55,25.25,25.25,0,0,0-10.31-2H384.9v45.48h8V271.8h10.64a25.22,25.22,0,0,0,10.31-1.95A14.83,14.83,0,0,0,420.56,264.27Zm-8.75-1.61c-2,1.61-4.87,2.43-8.64,2.43H392.93V246.31h10.24c3.77,0,6.67.82,8.64,2.42a9.61,9.61,0,0,1,0,13.93Z" />
  <path class="cls-1" d="M449,257.22a11.24,11.24,0,0,1,1.65.14v-7.25c-5.7,0-9.74,1.87-12,5.4l-.47.74V250.5h-7.3v34.58h7.69V268.31c0-3.55.93-6.32,2.77-8.22A10.19,10.19,0,0,1,449,257.22Z" />
  <path class="cls-1" d="M489.38,277a17.92,17.92,0,0,0,2.36-9.17,17.69,17.69,0,0,0-2.36-9.13,16.62,16.62,0,0,0-6.57-6.28,21,21,0,0,0-19,0,16.62,16.62,0,0,0-6.57,6.28,17.79,17.79,0,0,0-2.36,9.13,18,18,0,0,0,2.36,9.17,16.69,16.69,0,0,0,6.57,6.31,21,21,0,0,0,19,0A16.69,16.69,0,0,0,489.38,277Zm-8.43-1a10.35,10.35,0,0,1-7.68,3.1,10.24,10.24,0,0,1-7.64-3.1,12.55,12.55,0,0,1,0-16.26,10.23,10.23,0,0,1,7.64-3.1,10.34,10.34,0,0,1,7.68,3.1,12.42,12.42,0,0,1,0,16.26Z" />
  <path class="cls-1" d="M530.62,277.68l-5.88-3.44a10.17,10.17,0,0,1-3.75,3.53A11.3,11.3,0,0,1,508.08,276a12.35,12.35,0,0,1,0-16.33,10.7,10.7,0,0,1,7.8-3.06,10.59,10.59,0,0,1,5.08,1.25,10.31,10.31,0,0,1,3.75,3.52l5.88-3.43a13.52,13.52,0,0,0-5.66-5.72,18.83,18.83,0,0,0-9-2.07,20.28,20.28,0,0,0-9.7,2.27,16.81,16.81,0,0,0-6.64,6.28,17.54,17.54,0,0,0-2.39,9.13,17.77,17.77,0,0,0,2.39,9.17,16.83,16.83,0,0,0,6.67,6.31,20.47,20.47,0,0,0,9.67,2.27,18.33,18.33,0,0,0,8.91-2.11A14.1,14.1,0,0,0,530.62,277.68Z" />
  <path class="cls-1" d="M569.4,277a17.92,17.92,0,0,0,2.36-9.17,17.69,17.69,0,0,0-2.36-9.13,16.62,16.62,0,0,0-6.57-6.28,21,21,0,0,0-19,0,16.58,16.58,0,0,0-6.58,6.28,17.79,17.79,0,0,0-2.36,9.13,18,18,0,0,0,2.36,9.17,16.65,16.65,0,0,0,6.58,6.31,21,21,0,0,0,19,0A16.69,16.69,0,0,0,569.4,277Zm-8.43-1a11,11,0,0,1-15.32,0,12.55,12.55,0,0,1,0-16.26,11,11,0,0,1,15.32,0,12.42,12.42,0,0,1,0,16.26Z" />
  <path class="cls-1" d="M597.91,256.76a8.3,8.3,0,0,1,6.36,2.41c1.48,1.6,2.23,4,2.23,7.11v18.8h7.71V265.23c0-5-1.33-8.79-3.94-11.32s-6.13-3.8-10.46-3.8a18.28,18.28,0,0,0-6.87,1.23,12.59,12.59,0,0,0-5,3.61l-.45.54v-5h-7.31v34.58h7.7V267.59c0-3.46.91-6.17,2.7-8A9.77,9.77,0,0,1,597.91,256.76Z" />
  <path class="cls-1" d="M643.58,278a7.6,7.6,0,0,1-4.48,1.3,5,5,0,0,1-3.8-1.43,5.77,5.77,0,0,1-1.32-4.08V256.82h9.4v-6.06H634v-8h-7.7v8H620.5v6.06h5.78V274c0,3.77,1,6.67,3.08,8.62s5,3,8.76,3a15.49,15.49,0,0,0,4.29-.59,9.49,9.49,0,0,0,3.28-1.61Z" />
  <path class="cls-1" d="M419.39,343.34a20.88,20.88,0,0,0,0-20.29,18,18,0,0,0-7.42-6.86,24,24,0,0,0-11-2.45H384.64v38.91H401a23.8,23.8,0,0,0,11-2.45A18,18,0,0,0,419.39,343.34Zm-10.2,3a18.57,18.57,0,0,1-8.53,1.88h-10.9V318.13h10.9a18.45,18.45,0,0,1,8.53,1.89,13.69,13.69,0,0,1,5.71,5.3,16.43,16.43,0,0,1,0,15.75A13.71,13.71,0,0,1,409.19,346.38Z" />
  <rect class="cls-1" x="430.36" y="323.32" width="4.89" height="29.34" />
  <path class="cls-1" d="M430.37,316.12a3.34,3.34,0,0,0,2.44.94,3.25,3.25,0,0,0,2.43-1,3.18,3.18,0,0,0,1-2.38,2.94,2.94,0,0,0-1-2.26,3.37,3.37,0,0,0-2.44-.92,3.29,3.29,0,0,0-2.44,1,3.18,3.18,0,0,0-1,2.33A3,3,0,0,0,430.37,316.12Z" />
  <path class="cls-1" d="M474.12,323.32H469.5v5.11l-.46-.6a11.48,11.48,0,0,0-4.65-3.58,15.84,15.84,0,0,0-6.18-1.22,16.35,16.35,0,0,0-7.63,1.78,13.31,13.31,0,0,0-5.33,5,15.09,15.09,0,0,0,0,14.77,13.41,13.41,0,0,0,5.34,5,16,16,0,0,0,7.62,1.8,15.62,15.62,0,0,0,6-1.13,11.88,11.88,0,0,0,4.6-3.39l.45-.55v3.08c0,3.43-.87,6-2.58,7.72s-4.38,2.56-7.93,2.56a19.9,19.9,0,0,1-6.41-1.06,15.67,15.67,0,0,1-5-2.7L445,359.67a15.91,15.91,0,0,0,5.94,3.1,27.54,27.54,0,0,0,8,1.15c5,0,8.89-1.24,11.42-3.68s3.81-6.27,3.81-11.39ZM468,342.37a9.39,9.39,0,0,1-3.76,3.55,12.16,12.16,0,0,1-10.82,0,9.39,9.39,0,0,1-3.76-3.55,9.91,9.91,0,0,1-1.36-5.17,9.4,9.4,0,0,1,3-7.2,11.82,11.82,0,0,1,15.16,0,9.4,9.4,0,0,1,2.95,7.2A9.91,9.91,0,0,1,468,342.37Z" />
  <path class="cls-1" d="M484.94,316.12a3.34,3.34,0,0,0,2.44.94,3.29,3.29,0,0,0,2.44-1,3.2,3.2,0,0,0,1-2.38,2.94,2.94,0,0,0-1-2.26,3.37,3.37,0,0,0-2.44-.92,3.29,3.29,0,0,0-2.44,1,3.15,3.15,0,0,0-1,2.33A3,3,0,0,0,484.94,316.12Z" />
  <rect class="cls-1" x="484.93" y="323.32" width="4.89" height="29.34" />
  <path class="cls-1" d="M515.37,347.68a6.83,6.83,0,0,1-4.12,1.26,4.77,4.77,0,0,1-3.65-1.38,5.49,5.49,0,0,1-1.28-3.89V327.25h8.56v-3.93h-8.56v-6.54h-4.89v6.54h-5.07v3.93h5.07V343.9c0,2.92.81,5.19,2.4,6.74a9.38,9.38,0,0,0,6.8,2.35,11.88,11.88,0,0,0,3.53-.53,7.84,7.84,0,0,0,2.69-1.37Z" />
  <path class="cls-1" d="M542,348.83l.47-.73v4.55h4.62V334.89c0-3.92-1.08-6.91-3.21-8.88s-5.28-3-9.32-3a22.84,22.84,0,0,0-6.74,1,16.38,16.38,0,0,0-5.26,2.66l2,3.6a13.9,13.9,0,0,1,4.12-2.19,16.35,16.35,0,0,1,5.26-.88c2.68,0,4.75.64,6.14,1.92a7.17,7.17,0,0,1,2.11,5.54V336h-8.81c-4.09,0-7.1.78-9,2.33a7.64,7.64,0,0,0-2.78,6.14,7.52,7.52,0,0,0,2.92,6.16,12.21,12.21,0,0,0,7.86,2.37,14.46,14.46,0,0,0,5.84-1.08A8.42,8.42,0,0,0,542,348.83Zm-3.19-.91a10.36,10.36,0,0,1-5.49,1.41,8.29,8.29,0,0,1-5-1.34,4.45,4.45,0,0,1-1.84-3.76c0-3.23,2.39-4.87,7.12-4.87h8.59l0,4.52a8.17,8.17,0,0,1-3.37,4Z" />
  <rect class="cls-1" x="557.63" y="311.38" width="4.89" height="41.27" />
  <rect class="cls-1" x="196.2" y="227.16" width="140.95" height="140.95" rx="24.18" />
  <path class="cls-2" d="M247.53,253.61a.55.55,0,0,0-.55.55v24a39.51,39.51,0,0,1,39.51,39.51h24a.54.54,0,0,0,.54-.55A64,64,0,0,0,247.53,253.61Z" />
  <path class="cls-3" d="M247,278.15v39.51h39.51A39.51,39.51,0,0,0,247,278.15Z" />
  <path class="cls-2" d="M222.86,278.15a.54.54,0,0,0-.54.53v62.45a.54.54,0,0,0,.54.53h23.58a.54.54,0,0,0,.54-.53v-63Z" />
</svg>